<?xml version="1.0" encoding="utf-8" standalone="no"?>
<!DOCTYPE svg PUBLIC "-//W3C//DTD SVG 1.1//EN"
  "http://www.w3.org/Graphics/SVG/1.1/DTD/svg11.dtd">
<svg xmlns:xlink="http://www.w3.org/1999/xlink" width="504pt" height="316.8pt" viewBox="0 0 504 316.8" xmlns="http://www.w3.org/2000/svg" version="1.1">
 <metadata>
  <rdf:RDF xmlns:dc="http://purl.org/dc/elements/1.1/" xmlns:cc="http://creativecommons.org/ns#" xmlns:rdf="http://www.w3.org/1999/02/22-rdf-syntax-ns#">
   <cc:Work>
    <dc:type rdf:resource="http://purl.org/dc/dcmitype/StillImage"/>
    <dc:date>2026-07-09T04:07:35.298257</dc:date>
    <dc:format>image/svg+xml</dc:format>
    <dc:creator>
     <cc:Agent>
      <dc:title>Matplotlib v3.11.0, https://matplotlib.org/</dc:title>
     </cc:Agent>
    </dc:creator>
   </cc:Work>
  </rdf:RDF>
 </metadata>
 <defs>
  <style type="text/css">*{stroke-linejoin: round; stroke-linecap: butt}</style>
 </defs>
 <g id="figure_1">
  <g id="patch_1">
   <path d="M 0 316.8 
L 504 316.8 
L 504 0 
L 0 0 
z
" style="fill: #ffffff"/>
  </g>
  <g id="axes_1">
   <g id="patch_2">
    <path d="M 47.962344 282.054359 
L 493.2 282.054359 
L 493.2 26.16 
L 47.962344 26.16 
z
" style="fill: #ffffff"/>
   </g>
   <g id="patch_3">
    <path d="M 68.200419 274.946183 
L 76.435004 274.946183 
L 76.435004 66.439668 
L 68.200419 66.439668 
z
" clip-path="url(#pcff96ad436)" style="fill: #0072b2"/>
   </g>
   <g id="patch_4">
    <path d="M 99.871898 274.946183 
L 108.106483 274.946183 
L 108.106483 71.178452 
L 99.871898 71.178452 
z
" clip-path="url(#pcff96ad436)" style="fill: #0072b2"/>
   </g>
   <g id="patch_5">
    <path d="M 131.543378 274.946183 
L 139.777962 274.946183 
L 139.777962 218.08077 
L 131.543378 218.08077 
z
" clip-path="url(#pcff96ad436)" style="fill: #0072b2"/>
   </g>
   <g id="patch_6">
    <path d="M 163.214857 274.946183 
L 171.449442 274.946183 
L 171.449442 38.006961 
L 163.214857 38.006961 
z
" clip-path="url(#pcff96ad436)" style="fill: #0072b2"/>
   </g>
   <g id="patch_7">
    <path d="M 194.886336 274.946183 
L 203.120921 274.946183 
L 203.120921 80.656021 
L 194.886336 80.656021 
z
" clip-path="url(#pcff96ad436)" style="fill: #0072b2"/>
   </g>
   <g id="patch_8">
    <path d="M 226.557816 274.946183 
L 234.7924 274.946183 
L 234.7924 47.48453 
L 226.557816 47.48453 
z
" clip-path="url(#pcff96ad436)" style="fill: #0072b2"/>
   </g>
   <g id="patch_9">
    <path d="M 258.229295 274.946183 
L 266.46388 274.946183 
L 266.46388 90.13359 
L 258.229295 90.13359 
z
" clip-path="url(#pcff96ad436)" style="fill: #0072b2"/>
   </g>
   <g id="patch_10">
    <path d="M 289.900774 274.946183 
L 298.135359 274.946183 
L 298.135359 132.78265 
L 289.900774 132.78265 
z
" clip-path="url(#pcff96ad436)" style="fill: #0072b2"/>
   </g>
   <g id="patch_11">
    <path d="M 321.572254 274.946183 
L 329.806838 274.946183 
L 329.806838 71.178452 
L 321.572254 71.178452 
z
" clip-path="url(#pcff96ad436)" style="fill: #0072b2"/>
   </g>
   <g id="patch_12">
    <path d="M 353.243733 274.946183 
L 361.478318 274.946183 
L 361.478318 47.48453 
L 353.243733 47.48453 
z
" clip-path="url(#pcff96ad436)" style="fill: #0072b2"/>
   </g>
   <g id="patch_13">
    <path d="M 384.915212 274.946183 
L 393.149797 274.946183 
L 393.149797 132.78265 
L 384.915212 132.78265 
z
" clip-path="url(#pcff96ad436)" style="fill: #0072b2"/>
   </g>
   <g id="patch_14">
    <path d="M 416.586692 274.946183 
L 424.821276 274.946183 
L 424.821276 237.035907 
L 416.586692 237.035907 
z
" clip-path="url(#pcff96ad436)" style="fill: #0072b2"/>
   </g>
   <g id="patch_15">
    <path d="M 448.258171 274.946183 
L 456.492755 274.946183 
L 456.492755 142.260219 
L 448.258171 142.260219 
z
" clip-path="url(#pcff96ad436)" style="fill: #0072b2"/>
   </g>
   <g id="patch_16">
    <path d="M 76.435004 274.946183 
L 84.669588 274.946183 
L 84.669588 255.991045 
L 76.435004 255.991045 
z
" clip-path="url(#pcff96ad436)" style="fill: #e69f00"/>
   </g>
   <g id="patch_17">
    <path d="M 108.106483 274.946183 
L 116.341068 274.946183 
L 116.341068 274.946183 
L 108.106483 274.946183 
z
" clip-path="url(#pcff96ad436)" style="fill: #e69f00"/>
   </g>
   <g id="patch_18">
    <path d="M 139.777962 274.946183 
L 148.012547 274.946183 
L 148.012547 218.08077 
L 139.777962 218.08077 
z
" clip-path="url(#pcff96ad436)" style="fill: #e69f00"/>
   </g>
   <g id="patch_19">
    <path d="M 171.449442 274.946183 
L 179.684026 274.946183 
L 179.684026 42.745746 
L 171.449442 42.745746 
z
" clip-path="url(#pcff96ad436)" style="fill: #e69f00"/>
   </g>
   <g id="patch_20">
    <path d="M 203.120921 274.946183 
L 211.355506 274.946183 
L 211.355506 170.692925 
L 203.120921 170.692925 
z
" clip-path="url(#pcff96ad436)" style="fill: #e69f00"/>
   </g>
   <g id="patch_21">
    <path d="M 234.7924 274.946183 
L 243.026985 274.946183 
L 243.026985 232.297123 
L 234.7924 232.297123 
z
" clip-path="url(#pcff96ad436)" style="fill: #e69f00"/>
   </g>
   <g id="patch_22">
    <path d="M 266.46388 274.946183 
L 274.698464 274.946183 
L 274.698464 213.341985 
L 266.46388 213.341985 
z
" clip-path="url(#pcff96ad436)" style="fill: #e69f00"/>
   </g>
   <g id="patch_23">
    <path d="M 298.135359 274.946183 
L 306.369944 274.946183 
L 306.369944 222.819554 
L 298.135359 222.819554 
z
" clip-path="url(#pcff96ad436)" style="fill: #e69f00"/>
   </g>
   <g id="patch_24">
    <path d="M 329.806838 274.946183 
L 338.041423 274.946183 
L 338.041423 203.864416 
L 329.806838 203.864416 
z
" clip-path="url(#pcff96ad436)" style="fill: #e69f00"/>
   </g>
   <g id="patch_25">
    <path d="M 361.478318 274.946183 
L 369.712902 274.946183 
L 369.712902 99.611159 
L 361.478318 99.611159 
z
" clip-path="url(#pcff96ad436)" style="fill: #e69f00"/>
   </g>
   <g id="patch_26">
    <path d="M 393.149797 274.946183 
L 401.384381 274.946183 
L 401.384381 232.297123 
L 393.149797 232.297123 
z
" clip-path="url(#pcff96ad436)" style="fill: #e69f00"/>
   </g>
   <g id="patch_27">
    <path d="M 424.821276 274.946183 
L 433.055861 274.946183 
L 433.055861 232.297123 
L 424.821276 232.297123 
z
" clip-path="url(#pcff96ad436)" style="fill: #e69f00"/>
   </g>
   <g id="patch_28">
    <path d="M 456.492755 274.946183 
L 464.72734 274.946183 
L 464.72734 227.558338 
L 456.492755 227.558338 
z
" clip-path="url(#pcff96ad436)" style="fill: #e69f00"/>
   </g>
   <g id="patch_29">
    <path d="M 84.669588 274.946183 
L 92.904173 274.946183 
L 92.904173 38.006961 
L 84.669588 38.006961 
z
" clip-path="url(#pcff96ad436)" style="fill: #009e73"/>
   </g>
   <g id="patch_30">
    <path d="M 116.341068 274.946183 
L 124.575652 274.946183 
L 124.575652 38.006961 
L 116.341068 38.006961 
z
" clip-path="url(#pcff96ad436)" style="fill: #009e73"/>
   </g>
   <g id="patch_31">
    <path d="M 148.012547 274.946183 
L 156.247132 274.946183 
L 156.247132 42.745746 
L 148.012547 42.745746 
z
" clip-path="url(#pcff96ad436)" style="fill: #009e73"/>
   </g>
   <g id="patch_32">
    <path d="M 179.684026 274.946183 
L 187.918611 274.946183 
L 187.918611 38.006961 
L 179.684026 38.006961 
z
" clip-path="url(#pcff96ad436)" style="fill: #009e73"/>
   </g>
   <g id="patch_33">
    <path d="M 211.355506 274.946183 
L 219.59009 274.946183 
L 219.59009 38.006961 
L 211.355506 38.006961 
z
" clip-path="url(#pcff96ad436)" style="fill: #009e73"/>
   </g>
   <g id="patch_34">
    <path d="M 243.026985 274.946183 
L 251.261569 274.946183 
L 251.261569 38.006961 
L 243.026985 38.006961 
z
" clip-path="url(#pcff96ad436)" style="fill: #009e73"/>
   </g>
   <g id="patch_35">
    <path d="M 274.698464 274.946183 
L 282.933049 274.946183 
L 282.933049 38.006961 
L 274.698464 38.006961 
z
" clip-path="url(#pcff96ad436)" style="fill: #009e73"/>
   </g>
   <g id="patch_36">
    <path d="M 306.369944 274.946183 
L 314.604528 274.946183 
L 314.604528 38.006961 
L 306.369944 38.006961 
z
" clip-path="url(#pcff96ad436)" style="fill: #009e73"/>
   </g>
   <g id="patch_37">
    <path d="M 338.041423 274.946183 
L 346.276007 274.946183 
L 346.276007 38.006961 
L 338.041423 38.006961 
z
" clip-path="url(#pcff96ad436)" style="fill: #009e73"/>
   </g>
   <g id="patch_38">
    <path d="M 369.712902 274.946183 
L 377.947487 274.946183 
L 377.947487 38.006961 
L 369.712902 38.006961 
z
" clip-path="url(#pcff96ad436)" style="fill: #009e73"/>
   </g>
   <g id="patch_39">
    <path d="M 401.384381 274.946183 
L 409.618966 274.946183 
L 409.618966 38.006961 
L 401.384381 38.006961 
z
" clip-path="url(#pcff96ad436)" style="fill: #009e73"/>
   </g>
   <g id="patch_40">
    <path d="M 433.055861 274.946183 
L 441.290445 274.946183 
L 441.290445 38.006961 
L 433.055861 38.006961 
z
" clip-path="url(#pcff96ad436)" style="fill: #009e73"/>
   </g>
   <g id="patch_41">
    <path d="M 464.72734 274.946183 
L 472.961925 274.946183 
L 472.961925 38.006961 
L 464.72734 38.006961 
z
" clip-path="url(#pcff96ad436)" style="fill: #009e73"/>
   </g>
   <g id="matplotlib.axis_1">
    <g id="xtick_1">
     <g id="line2d_1">
      <defs>
       <path id="mbc7e9039f6" d="M 0 0 
L 0 3.5 
" style="stroke: #000000; stroke-width: 0.8"/>
      </defs>
      <g>
       <use xlink:href="#mbc7e9039f6" x="80.552296" y="282.054359" style="stroke: #000000; stroke-width: 0.8"/>
      </g>
     </g>
     <g id="text_1">
      <!-- anthropic/claude-opus-4.8 -->
      <g transform="translate(34.601124 294.373266) scale(0.07 -0.07)">
       <defs>
        <path id="DejaVuSans-44" d="M 2194 1759 
Q 1497 1759 1228 1600 
Q 959 1441 959 1056 
Q 959 750 1161 570 
Q 1363 391 1709 391 
Q 2188 391 2477 730 
Q 2766 1069 2766 1631 
L 2766 1759 
L 2194 1759 
z
M 3341 1997 
L 3341 0 
L 2766 0 
L 2766 531 
Q 2569 213 2275 61 
Q 1981 -91 1556 -91 
Q 1019 -91 701 211 
Q 384 513 384 1019 
Q 384 1609 779 1909 
Q 1175 2209 1959 2209 
L 2766 2209 
L 2766 2266 
Q 2766 2663 2505 2880 
Q 2244 3097 1772 3097 
Q 1472 3097 1187 3025 
Q 903 2953 641 2809 
L 641 3341 
Q 956 3463 1253 3523 
Q 1550 3584 1831 3584 
Q 2591 3584 2966 3190 
Q 3341 2797 3341 1997 
z
" transform="scale(0.015625)"/>
        <path id="DejaVuSans-51" d="M 3513 2113 
L 3513 0 
L 2938 0 
L 2938 2094 
Q 2938 2591 2744 2837 
Q 2550 3084 2163 3084 
Q 1697 3084 1428 2787 
Q 1159 2491 1159 1978 
L 1159 0 
L 581 0 
L 581 3500 
L 1159 3500 
L 1159 2956 
Q 1366 3272 1645 3428 
Q 1925 3584 2291 3584 
Q 2894 3584 3203 3211 
Q 3513 2838 3513 2113 
z
" transform="scale(0.015625)"/>
        <path id="DejaVuSans-57" d="M 1172 4494 
L 1172 3500 
L 2356 3500 
L 2356 3053 
L 1172 3053 
L 1172 1153 
Q 1172 725 1289 603 
Q 1406 481 1766 481 
L 2356 481 
L 2356 0 
L 1766 0 
Q 1100 0 847 248 
Q 594 497 594 1153 
L 594 3053 
L 172 3053 
L 172 3500 
L 594 3500 
L 594 4494 
L 1172 4494 
z
" transform="scale(0.015625)"/>
        <path id="DejaVuSans-4b" d="M 3513 2113 
L 3513 0 
L 2938 0 
L 2938 2094 
Q 2938 2591 2744 2837 
Q 2550 3084 2163 3084 
Q 1697 3084 1428 2787 
Q 1159 2491 1159 1978 
L 1159 0 
L 581 0 
L 581 4863 
L 1159 4863 
L 1159 2956 
Q 1366 3272 1645 3428 
Q 1925 3584 2291 3584 
Q 2894 3584 3203 3211 
Q 3513 2838 3513 2113 
z
" transform="scale(0.015625)"/>
        <path id="DejaVuSans-55" d="M 2631 2963 
Q 2534 3019 2420 3045 
Q 2306 3072 2169 3072 
Q 1681 3072 1420 2755 
Q 1159 2438 1159 1844 
L 1159 0 
L 581 0 
L 581 3500 
L 1159 3500 
L 1159 2956 
Q 1341 3275 1631 3429 
Q 1922 3584 2338 3584 
Q 2397 3584 2469 3576 
Q 2541 3569 2628 3553 
L 2631 2963 
z
" transform="scale(0.015625)"/>
        <path id="DejaVuSans-52" d="M 1959 3097 
Q 1497 3097 1228 2736 
Q 959 2375 959 1747 
Q 959 1119 1226 758 
Q 1494 397 1959 397 
Q 2419 397 2687 759 
Q 2956 1122 2956 1747 
Q 2956 2369 2687 2733 
Q 2419 3097 1959 3097 
z
M 1959 3584 
Q 2709 3584 3137 3096 
Q 3566 2609 3566 1747 
Q 3566 888 3137 398 
Q 2709 -91 1959 -91 
Q 1206 -91 779 398 
Q 353 888 353 1747 
Q 353 2609 779 3096 
Q 1206 3584 1959 3584 
z
" transform="scale(0.015625)"/>
        <path id="DejaVuSans-53" d="M 1159 525 
L 1159 -1331 
L 581 -1331 
L 581 3500 
L 1159 3500 
L 1159 2969 
Q 1341 3281 1617 3432 
Q 1894 3584 2278 3584 
Q 2916 3584 3314 3078 
Q 3713 2572 3713 1747 
Q 3713 922 3314 415 
Q 2916 -91 2278 -91 
Q 1894 -91 1617 61 
Q 1341 213 1159 525 
z
M 3116 1747 
Q 3116 2381 2855 2742 
Q 2594 3103 2138 3103 
Q 1681 3103 1420 2742 
Q 1159 2381 1159 1747 
Q 1159 1113 1420 752 
Q 1681 391 2138 391 
Q 2594 391 2855 752 
Q 3116 1113 3116 1747 
z
" transform="scale(0.015625)"/>
        <path id="DejaVuSans-4c" d="M 603 3500 
L 1178 3500 
L 1178 0 
L 603 0 
L 603 3500 
z
M 603 4863 
L 1178 4863 
L 1178 4134 
L 603 4134 
L 603 4863 
z
" transform="scale(0.015625)"/>
        <path id="DejaVuSans-46" d="M 3122 3366 
L 3122 2828 
Q 2878 2963 2633 3030 
Q 2388 3097 2138 3097 
Q 1578 3097 1268 2742 
Q 959 2388 959 1747 
Q 959 1106 1268 751 
Q 1578 397 2138 397 
Q 2388 397 2633 464 
Q 2878 531 3122 666 
L 3122 134 
Q 2881 22 2623 -34 
Q 2366 -91 2075 -91 
Q 1284 -91 818 406 
Q 353 903 353 1747 
Q 353 2603 823 3093 
Q 1294 3584 2113 3584 
Q 2378 3584 2631 3529 
Q 2884 3475 3122 3366 
z
" transform="scale(0.015625)"/>
        <path id="DejaVuSans-12" d="M 1625 4666 
L 2156 4666 
L 531 -594 
L 0 -594 
L 1625 4666 
z
" transform="scale(0.015625)"/>
        <path id="DejaVuSans-4f" d="M 603 4863 
L 1178 4863 
L 1178 0 
L 603 0 
L 603 4863 
z
" transform="scale(0.015625)"/>
        <path id="DejaVuSans-58" d="M 544 1381 
L 544 3500 
L 1119 3500 
L 1119 1403 
Q 1119 906 1312 657 
Q 1506 409 1894 409 
Q 2359 409 2629 706 
Q 2900 1003 2900 1516 
L 2900 3500 
L 3475 3500 
L 3475 0 
L 2900 0 
L 2900 538 
Q 2691 219 2414 64 
Q 2138 -91 1772 -91 
Q 1169 -91 856 284 
Q 544 659 544 1381 
z
M 1991 3584 
L 1991 3584 
z
" transform="scale(0.015625)"/>
        <path id="DejaVuSans-47" d="M 2906 2969 
L 2906 4863 
L 3481 4863 
L 3481 0 
L 2906 0 
L 2906 525 
Q 2725 213 2448 61 
Q 2172 -91 1784 -91 
Q 1150 -91 751 415 
Q 353 922 353 1747 
Q 353 2572 751 3078 
Q 1150 3584 1784 3584 
Q 2172 3584 2448 3432 
Q 2725 3281 2906 2969 
z
M 947 1747 
Q 947 1113 1208 752 
Q 1469 391 1925 391 
Q 2381 391 2643 752 
Q 2906 1113 2906 1747 
Q 2906 2381 2643 2742 
Q 2381 3103 1925 3103 
Q 1469 3103 1208 2742 
Q 947 2381 947 1747 
z
" transform="scale(0.015625)"/>
        <path id="DejaVuSans-48" d="M 3597 1894 
L 3597 1613 
L 953 1613 
Q 991 1019 1311 708 
Q 1631 397 2203 397 
Q 2534 397 2845 478 
Q 3156 559 3463 722 
L 3463 178 
Q 3153 47 2828 -22 
Q 2503 -91 2169 -91 
Q 1331 -91 842 396 
Q 353 884 353 1716 
Q 353 2575 817 3079 
Q 1281 3584 2069 3584 
Q 2775 3584 3186 3129 
Q 3597 2675 3597 1894 
z
M 3022 2063 
Q 3016 2534 2758 2815 
Q 2500 3097 2075 3097 
Q 1594 3097 1305 2825 
Q 1016 2553 972 2059 
L 3022 2063 
z
" transform="scale(0.015625)"/>
        <path id="DejaVuSans-10" d="M 313 2009 
L 1997 2009 
L 1997 1497 
L 313 1497 
L 313 2009 
z
" transform="scale(0.015625)"/>
        <path id="DejaVuSans-56" d="M 2834 3397 
L 2834 2853 
Q 2591 2978 2328 3040 
Q 2066 3103 1784 3103 
Q 1356 3103 1142 2972 
Q 928 2841 928 2578 
Q 928 2378 1081 2264 
Q 1234 2150 1697 2047 
L 1894 2003 
Q 2506 1872 2764 1633 
Q 3022 1394 3022 966 
Q 3022 478 2636 193 
Q 2250 -91 1575 -91 
Q 1294 -91 989 -36 
Q 684 19 347 128 
L 347 722 
Q 666 556 975 473 
Q 1284 391 1588 391 
Q 1994 391 2212 530 
Q 2431 669 2431 922 
Q 2431 1156 2273 1281 
Q 2116 1406 1581 1522 
L 1381 1569 
Q 847 1681 609 1914 
Q 372 2147 372 2553 
Q 372 3047 722 3315 
Q 1072 3584 1716 3584 
Q 2034 3584 2315 3537 
Q 2597 3491 2834 3397 
z
" transform="scale(0.015625)"/>
        <path id="DejaVuSans-17" d="M 2419 4116 
L 825 1625 
L 2419 1625 
L 2419 4116 
z
M 2253 4666 
L 3047 4666 
L 3047 1625 
L 3713 1625 
L 3713 1100 
L 3047 1100 
L 3047 0 
L 2419 0 
L 2419 1100 
L 313 1100 
L 313 1709 
L 2253 4666 
z
" transform="scale(0.015625)"/>
        <path id="DejaVuSans-11" d="M 684 794 
L 1344 794 
L 1344 0 
L 684 0 
L 684 794 
z
" transform="scale(0.015625)"/>
        <path id="DejaVuSans-1b" d="M 2034 2216 
Q 1584 2216 1326 1975 
Q 1069 1734 1069 1313 
Q 1069 891 1326 650 
Q 1584 409 2034 409 
Q 2484 409 2743 651 
Q 3003 894 3003 1313 
Q 3003 1734 2745 1975 
Q 2488 2216 2034 2216 
z
M 1403 2484 
Q 997 2584 770 2862 
Q 544 3141 544 3541 
Q 544 4100 942 4425 
Q 1341 4750 2034 4750 
Q 2731 4750 3128 4425 
Q 3525 4100 3525 3541 
Q 3525 3141 3298 2862 
Q 3072 2584 2669 2484 
Q 3125 2378 3379 2068 
Q 3634 1759 3634 1313 
Q 3634 634 3220 271 
Q 2806 -91 2034 -91 
Q 1263 -91 848 271 
Q 434 634 434 1313 
Q 434 1759 690 2068 
Q 947 2378 1403 2484 
z
M 1172 3481 
Q 1172 3119 1398 2916 
Q 1625 2713 2034 2713 
Q 2441 2713 2670 2916 
Q 2900 3119 2900 3481 
Q 2900 3844 2670 4047 
Q 2441 4250 2034 4250 
Q 1625 4250 1398 4047 
Q 1172 3844 1172 3481 
z
" transform="scale(0.015625)"/>
       </defs>
       <use xlink:href="#DejaVuSans-44"/>
       <use xlink:href="#DejaVuSans-51" transform="translate(61.28125 0)"/>
       <use xlink:href="#DejaVuSans-57" transform="translate(124.65625 0)"/>
       <use xlink:href="#DejaVuSans-4b" transform="translate(163.859375 0)"/>
       <use xlink:href="#DejaVuSans-55" transform="translate(227.234375 0)"/>
       <use xlink:href="#DejaVuSans-52" transform="translate(266.140625 0)"/>
       <use xlink:href="#DejaVuSans-53" transform="translate(327.328125 0)"/>
       <use xlink:href="#DejaVuSans-4c" transform="translate(390.8125 0)"/>
       <use xlink:href="#DejaVuSans-46" transform="translate(418.59375 0)"/>
       <use xlink:href="#DejaVuSans-12" transform="translate(473.578125 0)"/>
       <use xlink:href="#DejaVuSans-46" transform="translate(507.265625 0)"/>
       <use xlink:href="#DejaVuSans-4f" transform="translate(562.25 0)"/>
       <use xlink:href="#DejaVuSans-44" transform="translate(590.03125 0)"/>
       <use xlink:href="#DejaVuSans-58" transform="translate(651.3125 0)"/>
       <use xlink:href="#DejaVuSans-47" transform="translate(714.6875 0)"/>
       <use xlink:href="#DejaVuSans-48" transform="translate(778.171875 0)"/>
       <use xlink:href="#DejaVuSans-10" transform="translate(839.703125 0)"/>
       <use xlink:href="#DejaVuSans-52" transform="translate(877.640625 0)"/>
       <use xlink:href="#DejaVuSans-53" transform="translate(938.828125 0)"/>
       <use xlink:href="#DejaVuSans-58" transform="translate(1002.3125 0)"/>
       <use xlink:href="#DejaVuSans-56" transform="translate(1065.6875 0)"/>
       <use xlink:href="#DejaVuSans-10" transform="translate(1117.78125 0)"/>
       <use xlink:href="#DejaVuSans-17" transform="translate(1153.859375 0)"/>
       <use xlink:href="#DejaVuSans-11" transform="translate(1217.484375 0)"/>
       <use xlink:href="#DejaVuSans-1b" transform="translate(1249.265625 0)"/>
      </g>
     </g>
    </g>
    <g id="xtick_2">
     <g id="line2d_2">
      <g>
       <use xlink:href="#mbc7e9039f6" x="112.223775" y="282.054359" style="stroke: #000000; stroke-width: 0.8"/>
      </g>
     </g>
     <g id="text_2">
      <!-- anthropic/claude-sonnet-5 -->
      <g transform="translate(66.155025 294.373266) scale(0.07 -0.07)">
       <defs>
        <path id="DejaVuSans-18" d="M 691 4666 
L 3169 4666 
L 3169 4134 
L 1269 4134 
L 1269 2991 
Q 1406 3038 1543 3061 
Q 1681 3084 1819 3084 
Q 2600 3084 3056 2656 
Q 3513 2228 3513 1497 
Q 3513 744 3044 326 
Q 2575 -91 1722 -91 
Q 1428 -91 1123 -41 
Q 819 9 494 109 
L 494 744 
Q 775 591 1075 516 
Q 1375 441 1709 441 
Q 2250 441 2565 725 
Q 2881 1009 2881 1497 
Q 2881 1984 2565 2268 
Q 2250 2553 1709 2553 
Q 1456 2553 1204 2497 
Q 953 2441 691 2322 
L 691 4666 
z
" transform="scale(0.015625)"/>
       </defs>
       <use xlink:href="#DejaVuSans-44"/>
       <use xlink:href="#DejaVuSans-51" transform="translate(61.28125 0)"/>
       <use xlink:href="#DejaVuSans-57" transform="translate(124.65625 0)"/>
       <use xlink:href="#DejaVuSans-4b" transform="translate(163.859375 0)"/>
       <use xlink:href="#DejaVuSans-55" transform="translate(227.234375 0)"/>
       <use xlink:href="#DejaVuSans-52" transform="translate(266.140625 0)"/>
       <use xlink:href="#DejaVuSans-53" transform="translate(327.328125 0)"/>
       <use xlink:href="#DejaVuSans-4c" transform="translate(390.8125 0)"/>
       <use xlink:href="#DejaVuSans-46" transform="translate(418.59375 0)"/>
       <use xlink:href="#DejaVuSans-12" transform="translate(473.578125 0)"/>
       <use xlink:href="#DejaVuSans-46" transform="translate(507.265625 0)"/>
       <use xlink:href="#DejaVuSans-4f" transform="translate(562.25 0)"/>
       <use xlink:href="#DejaVuSans-44" transform="translate(590.03125 0)"/>
       <use xlink:href="#DejaVuSans-58" transform="translate(651.3125 0)"/>
       <use xlink:href="#DejaVuSans-47" transform="translate(714.6875 0)"/>
       <use xlink:href="#DejaVuSans-48" transform="translate(778.171875 0)"/>
       <use xlink:href="#DejaVuSans-10" transform="translate(839.703125 0)"/>
       <use xlink:href="#DejaVuSans-56" transform="translate(875.78125 0)"/>
       <use xlink:href="#DejaVuSans-52" transform="translate(927.875 0)"/>
       <use xlink:href="#DejaVuSans-51" transform="translate(989.0625 0)"/>
       <use xlink:href="#DejaVuSans-51" transform="translate(1052.4375 0)"/>
       <use xlink:href="#DejaVuSans-48" transform="translate(1115.8125 0)"/>
       <use xlink:href="#DejaVuSans-57" transform="translate(1177.34375 0)"/>
       <use xlink:href="#DejaVuSans-10" transform="translate(1216.546875 0)"/>
       <use xlink:href="#DejaVuSans-18" transform="translate(1252.625 0)"/>
      </g>
     </g>
    </g>
    <g id="xtick_3">
     <g id="line2d_3">
      <g>
       <use xlink:href="#mbc7e9039f6" x="143.895255" y="282.054359" style="stroke: #000000; stroke-width: 0.8"/>
      </g>
     </g>
     <g id="text_3">
      <!-- deepseek/deepseek-v4-pro -->
      <g transform="translate(96.444551 294.373266) scale(0.07 -0.07)">
       <defs>
        <path id="DejaVuSans-4e" d="M 581 4863 
L 1159 4863 
L 1159 1991 
L 2875 3500 
L 3609 3500 
L 1753 1863 
L 3688 0 
L 2938 0 
L 1159 1709 
L 1159 0 
L 581 0 
L 581 4863 
z
" transform="scale(0.015625)"/>
        <path id="DejaVuSans-59" d="M 191 3500 
L 800 3500 
L 1894 563 
L 2988 3500 
L 3597 3500 
L 2284 0 
L 1503 0 
L 191 3500 
z
" transform="scale(0.015625)"/>
       </defs>
       <use xlink:href="#DejaVuSans-47"/>
       <use xlink:href="#DejaVuSans-48" transform="translate(63.484375 0)"/>
       <use xlink:href="#DejaVuSans-48" transform="translate(125.015625 0)"/>
       <use xlink:href="#DejaVuSans-53" transform="translate(186.546875 0)"/>
       <use xlink:href="#DejaVuSans-56" transform="translate(250.03125 0)"/>
       <use xlink:href="#DejaVuSans-48" transform="translate(302.125 0)"/>
       <use xlink:href="#DejaVuSans-48" transform="translate(363.65625 0)"/>
       <use xlink:href="#DejaVuSans-4e" transform="translate(425.1875 0)"/>
       <use xlink:href="#DejaVuSans-12" transform="translate(483.09375 0)"/>
       <use xlink:href="#DejaVuSans-47" transform="translate(516.78125 0)"/>
       <use xlink:href="#DejaVuSans-48" transform="translate(580.265625 0)"/>
       <use xlink:href="#DejaVuSans-48" transform="translate(641.796875 0)"/>
       <use xlink:href="#DejaVuSans-53" transform="translate(703.328125 0)"/>
       <use xlink:href="#DejaVuSans-56" transform="translate(766.8125 0)"/>
       <use xlink:href="#DejaVuSans-48" transform="translate(818.90625 0)"/>
       <use xlink:href="#DejaVuSans-48" transform="translate(880.4375 0)"/>
       <use xlink:href="#DejaVuSans-4e" transform="translate(941.96875 0)"/>
       <use xlink:href="#DejaVuSans-10" transform="translate(999.875 0)"/>
       <use xlink:href="#DejaVuSans-59" transform="translate(1033.265625 0)"/>
       <use xlink:href="#DejaVuSans-17" transform="translate(1092.453125 0)"/>
       <use xlink:href="#DejaVuSans-10" transform="translate(1156.078125 0)"/>
       <use xlink:href="#DejaVuSans-53" transform="translate(1192.15625 0)"/>
       <use xlink:href="#DejaVuSans-55" transform="translate(1255.640625 0)"/>
       <use xlink:href="#DejaVuSans-52" transform="translate(1294.546875 0)"/>
      </g>
     </g>
    </g>
    <g id="xtick_4">
     <g id="line2d_4">
      <g>
       <use xlink:href="#mbc7e9039f6" x="175.566734" y="282.054359" style="stroke: #000000; stroke-width: 0.8"/>
      </g>
     </g>
     <g id="text_4">
      <!-- google/gemini-3.1-pro-preview -->
      <g transform="translate(121.645406 294.373266) scale(0.07 -0.07)">
       <defs>
        <path id="DejaVuSans-4a" d="M 2906 1791 
Q 2906 2416 2648 2759 
Q 2391 3103 1925 3103 
Q 1463 3103 1205 2759 
Q 947 2416 947 1791 
Q 947 1169 1205 825 
Q 1463 481 1925 481 
Q 2391 481 2648 825 
Q 2906 1169 2906 1791 
z
M 3481 434 
Q 3481 -459 3084 -895 
Q 2688 -1331 1869 -1331 
Q 1566 -1331 1297 -1286 
Q 1028 -1241 775 -1147 
L 775 -588 
Q 1028 -725 1275 -790 
Q 1522 -856 1778 -856 
Q 2344 -856 2625 -561 
Q 2906 -266 2906 331 
L 2906 616 
Q 2728 306 2450 153 
Q 2172 0 1784 0 
Q 1141 0 747 490 
Q 353 981 353 1791 
Q 353 2603 747 3093 
Q 1141 3584 1784 3584 
Q 2172 3584 2450 3431 
Q 2728 3278 2906 2969 
L 2906 3500 
L 3481 3500 
L 3481 434 
z
" transform="scale(0.015625)"/>
        <path id="DejaVuSans-50" d="M 3328 2828 
Q 3544 3216 3844 3400 
Q 4144 3584 4550 3584 
Q 5097 3584 5394 3201 
Q 5691 2819 5691 2113 
L 5691 0 
L 5113 0 
L 5113 2094 
Q 5113 2597 4934 2840 
Q 4756 3084 4391 3084 
Q 3944 3084 3684 2787 
Q 3425 2491 3425 1978 
L 3425 0 
L 2847 0 
L 2847 2094 
Q 2847 2600 2669 2842 
Q 2491 3084 2119 3084 
Q 1678 3084 1418 2786 
Q 1159 2488 1159 1978 
L 1159 0 
L 581 0 
L 581 3500 
L 1159 3500 
L 1159 2956 
Q 1356 3278 1631 3431 
Q 1906 3584 2284 3584 
Q 2666 3584 2933 3390 
Q 3200 3197 3328 2828 
z
" transform="scale(0.015625)"/>
        <path id="DejaVuSans-16" d="M 2597 2516 
Q 3050 2419 3304 2112 
Q 3559 1806 3559 1356 
Q 3559 666 3084 287 
Q 2609 -91 1734 -91 
Q 1441 -91 1130 -33 
Q 819 25 488 141 
L 488 750 
Q 750 597 1062 519 
Q 1375 441 1716 441 
Q 2309 441 2620 675 
Q 2931 909 2931 1356 
Q 2931 1769 2642 2001 
Q 2353 2234 1838 2234 
L 1294 2234 
L 1294 2753 
L 1863 2753 
Q 2328 2753 2575 2939 
Q 2822 3125 2822 3475 
Q 2822 3834 2567 4026 
Q 2313 4219 1838 4219 
Q 1578 4219 1281 4162 
Q 984 4106 628 3988 
L 628 4550 
Q 988 4650 1302 4700 
Q 1616 4750 1894 4750 
Q 2613 4750 3031 4423 
Q 3450 4097 3450 3541 
Q 3450 3153 3228 2886 
Q 3006 2619 2597 2516 
z
" transform="scale(0.015625)"/>
        <path id="DejaVuSans-14" d="M 794 531 
L 1825 531 
L 1825 4091 
L 703 3866 
L 703 4441 
L 1819 4666 
L 2450 4666 
L 2450 531 
L 3481 531 
L 3481 0 
L 794 0 
L 794 531 
z
" transform="scale(0.015625)"/>
        <path id="DejaVuSans-5a" d="M 269 3500 
L 844 3500 
L 1563 769 
L 2278 3500 
L 2956 3500 
L 3675 769 
L 4391 3500 
L 4966 3500 
L 4050 0 
L 3372 0 
L 2619 2869 
L 1863 0 
L 1184 0 
L 269 3500 
z
" transform="scale(0.015625)"/>
       </defs>
       <use xlink:href="#DejaVuSans-4a"/>
       <use xlink:href="#DejaVuSans-52" transform="translate(63.484375 0)"/>
       <use xlink:href="#DejaVuSans-52" transform="translate(124.671875 0)"/>
       <use xlink:href="#DejaVuSans-4a" transform="translate(185.859375 0)"/>
       <use xlink:href="#DejaVuSans-4f" transform="translate(249.34375 0)"/>
       <use xlink:href="#DejaVuSans-48" transform="translate(277.125 0)"/>
       <use xlink:href="#DejaVuSans-12" transform="translate(338.65625 0)"/>
       <use xlink:href="#DejaVuSans-4a" transform="translate(372.34375 0)"/>
       <use xlink:href="#DejaVuSans-48" transform="translate(435.828125 0)"/>
       <use xlink:href="#DejaVuSans-50" transform="translate(497.359375 0)"/>
       <use xlink:href="#DejaVuSans-4c" transform="translate(594.765625 0)"/>
       <use xlink:href="#DejaVuSans-51" transform="translate(622.546875 0)"/>
       <use xlink:href="#DejaVuSans-4c" transform="translate(685.921875 0)"/>
       <use xlink:href="#DejaVuSans-10" transform="translate(713.703125 0)"/>
       <use xlink:href="#DejaVuSans-16" transform="translate(749.78125 0)"/>
       <use xlink:href="#DejaVuSans-11" transform="translate(813.40625 0)"/>
       <use xlink:href="#DejaVuSans-14" transform="translate(845.1875 0)"/>
       <use xlink:href="#DejaVuSans-10" transform="translate(908.8125 0)"/>
       <use xlink:href="#DejaVuSans-53" transform="translate(944.890625 0)"/>
       <use xlink:href="#DejaVuSans-55" transform="translate(1008.375 0)"/>
       <use xlink:href="#DejaVuSans-52" transform="translate(1047.28125 0)"/>
       <use xlink:href="#DejaVuSans-10" transform="translate(1110.328125 0)"/>
       <use xlink:href="#DejaVuSans-53" transform="translate(1146.40625 0)"/>
       <use xlink:href="#DejaVuSans-55" transform="translate(1209.890625 0)"/>
       <use xlink:href="#DejaVuSans-48" transform="translate(1248.796875 0)"/>
       <use xlink:href="#DejaVuSans-59" transform="translate(1310.328125 0)"/>
       <use xlink:href="#DejaVuSans-4c" transform="translate(1369.515625 0)"/>
       <use xlink:href="#DejaVuSans-48" transform="translate(1397.296875 0)"/>
       <use xlink:href="#DejaVuSans-5a" transform="translate(1458.828125 0)"/>
      </g>
     </g>
    </g>
    <g id="xtick_5">
     <g id="line2d_5">
      <g>
       <use xlink:href="#mbc7e9039f6" x="207.238213" y="282.054359" style="stroke: #000000; stroke-width: 0.8"/>
      </g>
     </g>
     <g id="text_5">
      <!-- google/gemini-3.5-flash -->
      <g transform="translate(165.776338 294.373266) scale(0.07 -0.07)">
       <defs>
        <path id="DejaVuSans-13b0" d="M 1831 4863 
L 3431 4863 
L 3431 0 
L 2853 0 
L 2853 4384 
L 1825 4384 
Q 1516 4384 1395 4259 
Q 1275 4134 1275 3809 
L 1275 3500 
L 2222 3500 
L 2222 3053 
L 1275 3053 
L 1275 0 
L 697 0 
L 697 3053 
L 147 3053 
L 147 3500 
L 697 3500 
L 697 3744 
Q 697 4328 969 4595 
Q 1241 4863 1831 4863 
z
" transform="scale(0.015625)"/>
       </defs>
       <use xlink:href="#DejaVuSans-4a"/>
       <use xlink:href="#DejaVuSans-52" transform="translate(63.484375 0)"/>
       <use xlink:href="#DejaVuSans-52" transform="translate(124.671875 0)"/>
       <use xlink:href="#DejaVuSans-4a" transform="translate(185.859375 0)"/>
       <use xlink:href="#DejaVuSans-4f" transform="translate(249.34375 0)"/>
       <use xlink:href="#DejaVuSans-48" transform="translate(277.125 0)"/>
       <use xlink:href="#DejaVuSans-12" transform="translate(338.65625 0)"/>
       <use xlink:href="#DejaVuSans-4a" transform="translate(372.34375 0)"/>
       <use xlink:href="#DejaVuSans-48" transform="translate(435.828125 0)"/>
       <use xlink:href="#DejaVuSans-50" transform="translate(497.359375 0)"/>
       <use xlink:href="#DejaVuSans-4c" transform="translate(594.765625 0)"/>
       <use xlink:href="#DejaVuSans-51" transform="translate(622.546875 0)"/>
       <use xlink:href="#DejaVuSans-4c" transform="translate(685.921875 0)"/>
       <use xlink:href="#DejaVuSans-10" transform="translate(713.703125 0)"/>
       <use xlink:href="#DejaVuSans-16" transform="translate(749.78125 0)"/>
       <use xlink:href="#DejaVuSans-11" transform="translate(813.40625 0)"/>
       <use xlink:href="#DejaVuSans-18" transform="translate(845.1875 0)"/>
       <use xlink:href="#DejaVuSans-10" transform="translate(908.8125 0)"/>
       <use xlink:href="#DejaVuSans-13b0" transform="translate(944.890625 0)"/>
       <use xlink:href="#DejaVuSans-44" transform="translate(1007.875 0)"/>
       <use xlink:href="#DejaVuSans-56" transform="translate(1069.15625 0)"/>
       <use xlink:href="#DejaVuSans-4b" transform="translate(1121.25 0)"/>
      </g>
     </g>
    </g>
    <g id="xtick_6">
     <g id="line2d_6">
      <g>
       <use xlink:href="#mbc7e9039f6" x="238.909693" y="282.054359" style="stroke: #000000; stroke-width: 0.8"/>
      </g>
     </g>
     <g id="text_6">
      <!-- meta-llama/llama-4-maverick -->
      <g transform="translate(187.207036 294.373266) scale(0.07 -0.07)">
       <use xlink:href="#DejaVuSans-50"/>
       <use xlink:href="#DejaVuSans-48" transform="translate(97.40625 0)"/>
       <use xlink:href="#DejaVuSans-57" transform="translate(158.9375 0)"/>
       <use xlink:href="#DejaVuSans-44" transform="translate(198.140625 0)"/>
       <use xlink:href="#DejaVuSans-10" transform="translate(259.421875 0)"/>
       <use xlink:href="#DejaVuSans-4f" transform="translate(295.5 0)"/>
       <use xlink:href="#DejaVuSans-4f" transform="translate(323.28125 0)"/>
       <use xlink:href="#DejaVuSans-44" transform="translate(351.0625 0)"/>
       <use xlink:href="#DejaVuSans-50" transform="translate(412.34375 0)"/>
       <use xlink:href="#DejaVuSans-44" transform="translate(509.75 0)"/>
       <use xlink:href="#DejaVuSans-12" transform="translate(571.03125 0)"/>
       <use xlink:href="#DejaVuSans-4f" transform="translate(604.71875 0)"/>
       <use xlink:href="#DejaVuSans-4f" transform="translate(632.5 0)"/>
       <use xlink:href="#DejaVuSans-44" transform="translate(660.28125 0)"/>
       <use xlink:href="#DejaVuSans-50" transform="translate(721.5625 0)"/>
       <use xlink:href="#DejaVuSans-44" transform="translate(818.96875 0)"/>
       <use xlink:href="#DejaVuSans-10" transform="translate(880.25 0)"/>
       <use xlink:href="#DejaVuSans-17" transform="translate(916.328125 0)"/>
       <use xlink:href="#DejaVuSans-10" transform="translate(979.953125 0)"/>
       <use xlink:href="#DejaVuSans-50" transform="translate(1016.03125 0)"/>
       <use xlink:href="#DejaVuSans-44" transform="translate(1113.4375 0)"/>
       <use xlink:href="#DejaVuSans-59" transform="translate(1174.71875 0)"/>
       <use xlink:href="#DejaVuSans-48" transform="translate(1233.90625 0)"/>
       <use xlink:href="#DejaVuSans-55" transform="translate(1295.4375 0)"/>
       <use xlink:href="#DejaVuSans-4c" transform="translate(1336.546875 0)"/>
       <use xlink:href="#DejaVuSans-46" transform="translate(1364.328125 0)"/>
       <use xlink:href="#DejaVuSans-4e" transform="translate(1419.3125 0)"/>
      </g>
     </g>
    </g>
    <g id="xtick_7">
     <g id="line2d_7">
      <g>
       <use xlink:href="#mbc7e9039f6" x="270.581172" y="282.054359" style="stroke: #000000; stroke-width: 0.8"/>
      </g>
     </g>
     <g id="text_7">
      <!-- moonshotai/kimi-k2.6 -->
      <g transform="translate(232.583203 294.373266) scale(0.07 -0.07)">
       <defs>
        <path id="DejaVuSans-15" d="M 1228 531 
L 3431 531 
L 3431 0 
L 469 0 
L 469 531 
Q 828 903 1448 1529 
Q 2069 2156 2228 2338 
Q 2531 2678 2651 2914 
Q 2772 3150 2772 3378 
Q 2772 3750 2511 3984 
Q 2250 4219 1831 4219 
Q 1534 4219 1204 4116 
Q 875 4013 500 3803 
L 500 4441 
Q 881 4594 1212 4672 
Q 1544 4750 1819 4750 
Q 2544 4750 2975 4387 
Q 3406 4025 3406 3419 
Q 3406 3131 3298 2873 
Q 3191 2616 2906 2266 
Q 2828 2175 2409 1742 
Q 1991 1309 1228 531 
z
" transform="scale(0.015625)"/>
        <path id="DejaVuSans-19" d="M 2113 2584 
Q 1688 2584 1439 2293 
Q 1191 2003 1191 1497 
Q 1191 994 1439 701 
Q 1688 409 2113 409 
Q 2538 409 2786 701 
Q 3034 994 3034 1497 
Q 3034 2003 2786 2293 
Q 2538 2584 2113 2584 
z
M 3366 4563 
L 3366 3988 
Q 3128 4100 2886 4159 
Q 2644 4219 2406 4219 
Q 1781 4219 1451 3797 
Q 1122 3375 1075 2522 
Q 1259 2794 1537 2939 
Q 1816 3084 2150 3084 
Q 2853 3084 3261 2657 
Q 3669 2231 3669 1497 
Q 3669 778 3244 343 
Q 2819 -91 2113 -91 
Q 1303 -91 875 529 
Q 447 1150 447 2328 
Q 447 3434 972 4092 
Q 1497 4750 2381 4750 
Q 2619 4750 2861 4703 
Q 3103 4656 3366 4563 
z
" transform="scale(0.015625)"/>
       </defs>
       <use xlink:href="#DejaVuSans-50"/>
       <use xlink:href="#DejaVuSans-52" transform="translate(97.40625 0)"/>
       <use xlink:href="#DejaVuSans-52" transform="translate(158.59375 0)"/>
       <use xlink:href="#DejaVuSans-51" transform="translate(219.78125 0)"/>
       <use xlink:href="#DejaVuSans-56" transform="translate(283.15625 0)"/>
       <use xlink:href="#DejaVuSans-4b" transform="translate(335.25 0)"/>
       <use xlink:href="#DejaVuSans-52" transform="translate(398.625 0)"/>
       <use xlink:href="#DejaVuSans-57" transform="translate(459.8125 0)"/>
       <use xlink:href="#DejaVuSans-44" transform="translate(499.015625 0)"/>
       <use xlink:href="#DejaVuSans-4c" transform="translate(560.296875 0)"/>
       <use xlink:href="#DejaVuSans-12" transform="translate(588.078125 0)"/>
       <use xlink:href="#DejaVuSans-4e" transform="translate(621.765625 0)"/>
       <use xlink:href="#DejaVuSans-4c" transform="translate(679.671875 0)"/>
       <use xlink:href="#DejaVuSans-50" transform="translate(707.453125 0)"/>
       <use xlink:href="#DejaVuSans-4c" transform="translate(804.859375 0)"/>
       <use xlink:href="#DejaVuSans-10" transform="translate(832.640625 0)"/>
       <use xlink:href="#DejaVuSans-4e" transform="translate(868.71875 0)"/>
       <use xlink:href="#DejaVuSans-15" transform="translate(926.625 0)"/>
       <use xlink:href="#DejaVuSans-11" transform="translate(990.25 0)"/>
       <use xlink:href="#DejaVuSans-19" transform="translate(1022.03125 0)"/>
      </g>
     </g>
    </g>
    <g id="xtick_8">
     <g id="line2d_8">
      <g>
       <use xlink:href="#mbc7e9039f6" x="302.252651" y="282.054359" style="stroke: #000000; stroke-width: 0.8"/>
      </g>
     </g>
     <g id="text_8">
      <!-- nvidia/nemotron-3-ultra-550b-a55b -->
      <g transform="translate(240.309214 294.373266) scale(0.07 -0.07)">
       <defs>
        <path id="DejaVuSans-13" d="M 2034 4250 
Q 1547 4250 1301 3770 
Q 1056 3291 1056 2328 
Q 1056 1369 1301 889 
Q 1547 409 2034 409 
Q 2525 409 2770 889 
Q 3016 1369 3016 2328 
Q 3016 3291 2770 3770 
Q 2525 4250 2034 4250 
z
M 2034 4750 
Q 2819 4750 3233 4129 
Q 3647 3509 3647 2328 
Q 3647 1150 3233 529 
Q 2819 -91 2034 -91 
Q 1250 -91 836 529 
Q 422 1150 422 2328 
Q 422 3509 836 4129 
Q 1250 4750 2034 4750 
z
" transform="scale(0.015625)"/>
        <path id="DejaVuSans-45" d="M 3116 1747 
Q 3116 2381 2855 2742 
Q 2594 3103 2138 3103 
Q 1681 3103 1420 2742 
Q 1159 2381 1159 1747 
Q 1159 1113 1420 752 
Q 1681 391 2138 391 
Q 2594 391 2855 752 
Q 3116 1113 3116 1747 
z
M 1159 2969 
Q 1341 3281 1617 3432 
Q 1894 3584 2278 3584 
Q 2916 3584 3314 3078 
Q 3713 2572 3713 1747 
Q 3713 922 3314 415 
Q 2916 -91 2278 -91 
Q 1894 -91 1617 61 
Q 1341 213 1159 525 
L 1159 0 
L 581 0 
L 581 4863 
L 1159 4863 
L 1159 2969 
z
" transform="scale(0.015625)"/>
       </defs>
       <use xlink:href="#DejaVuSans-51"/>
       <use xlink:href="#DejaVuSans-59" transform="translate(63.375 0)"/>
       <use xlink:href="#DejaVuSans-4c" transform="translate(122.5625 0)"/>
       <use xlink:href="#DejaVuSans-47" transform="translate(150.34375 0)"/>
       <use xlink:href="#DejaVuSans-4c" transform="translate(213.828125 0)"/>
       <use xlink:href="#DejaVuSans-44" transform="translate(241.609375 0)"/>
       <use xlink:href="#DejaVuSans-12" transform="translate(302.890625 0)"/>
       <use xlink:href="#DejaVuSans-51" transform="translate(336.578125 0)"/>
       <use xlink:href="#DejaVuSans-48" transform="translate(399.953125 0)"/>
       <use xlink:href="#DejaVuSans-50" transform="translate(461.484375 0)"/>
       <use xlink:href="#DejaVuSans-52" transform="translate(558.890625 0)"/>
       <use xlink:href="#DejaVuSans-57" transform="translate(620.078125 0)"/>
       <use xlink:href="#DejaVuSans-55" transform="translate(659.28125 0)"/>
       <use xlink:href="#DejaVuSans-52" transform="translate(698.1875 0)"/>
       <use xlink:href="#DejaVuSans-51" transform="translate(759.375 0)"/>
       <use xlink:href="#DejaVuSans-10" transform="translate(822.75 0)"/>
       <use xlink:href="#DejaVuSans-16" transform="translate(858.828125 0)"/>
       <use xlink:href="#DejaVuSans-10" transform="translate(922.453125 0)"/>
       <use xlink:href="#DejaVuSans-58" transform="translate(958.53125 0)"/>
       <use xlink:href="#DejaVuSans-4f" transform="translate(1021.90625 0)"/>
       <use xlink:href="#DejaVuSans-57" transform="translate(1049.6875 0)"/>
       <use xlink:href="#DejaVuSans-55" transform="translate(1088.890625 0)"/>
       <use xlink:href="#DejaVuSans-44" transform="translate(1130 0)"/>
       <use xlink:href="#DejaVuSans-10" transform="translate(1191.28125 0)"/>
       <use xlink:href="#DejaVuSans-18" transform="translate(1227.359375 0)"/>
       <use xlink:href="#DejaVuSans-18" transform="translate(1290.984375 0)"/>
       <use xlink:href="#DejaVuSans-13" transform="translate(1354.609375 0)"/>
       <use xlink:href="#DejaVuSans-45" transform="translate(1418.234375 0)"/>
       <use xlink:href="#DejaVuSans-10" transform="translate(1481.71875 0)"/>
       <use xlink:href="#DejaVuSans-44" transform="translate(1517.796875 0)"/>
       <use xlink:href="#DejaVuSans-18" transform="translate(1579.078125 0)"/>
       <use xlink:href="#DejaVuSans-18" transform="translate(1642.703125 0)"/>
       <use xlink:href="#DejaVuSans-45" transform="translate(1706.328125 0)"/>
      </g>
     </g>
    </g>
    <g id="xtick_9">
     <g id="line2d_9">
      <g>
       <use xlink:href="#mbc7e9039f6" x="333.924131" y="282.054359" style="stroke: #000000; stroke-width: 0.8"/>
      </g>
     </g>
     <g id="text_9">
      <!-- openai/gpt-5.4 -->
      <g transform="translate(308.247802 294.373266) scale(0.07 -0.07)">
       <use xlink:href="#DejaVuSans-52"/>
       <use xlink:href="#DejaVuSans-53" transform="translate(61.1875 0)"/>
       <use xlink:href="#DejaVuSans-48" transform="translate(124.671875 0)"/>
       <use xlink:href="#DejaVuSans-51" transform="translate(186.203125 0)"/>
       <use xlink:href="#DejaVuSans-44" transform="translate(249.578125 0)"/>
       <use xlink:href="#DejaVuSans-4c" transform="translate(310.859375 0)"/>
       <use xlink:href="#DejaVuSans-12" transform="translate(338.640625 0)"/>
       <use xlink:href="#DejaVuSans-4a" transform="translate(372.328125 0)"/>
       <use xlink:href="#DejaVuSans-53" transform="translate(435.8125 0)"/>
       <use xlink:href="#DejaVuSans-57" transform="translate(499.296875 0)"/>
       <use xlink:href="#DejaVuSans-10" transform="translate(538.5 0)"/>
       <use xlink:href="#DejaVuSans-18" transform="translate(574.578125 0)"/>
       <use xlink:href="#DejaVuSans-11" transform="translate(638.203125 0)"/>
       <use xlink:href="#DejaVuSans-17" transform="translate(669.984375 0)"/>
      </g>
     </g>
    </g>
    <g id="xtick_10">
     <g id="line2d_10">
      <g>
       <use xlink:href="#mbc7e9039f6" x="365.59561" y="282.054359" style="stroke: #000000; stroke-width: 0.8"/>
      </g>
     </g>
     <g id="text_10">
      <!-- openai/gpt-5.5 -->
      <g transform="translate(339.919282 294.373266) scale(0.07 -0.07)">
       <use xlink:href="#DejaVuSans-52"/>
       <use xlink:href="#DejaVuSans-53" transform="translate(61.1875 0)"/>
       <use xlink:href="#DejaVuSans-48" transform="translate(124.671875 0)"/>
       <use xlink:href="#DejaVuSans-51" transform="translate(186.203125 0)"/>
       <use xlink:href="#DejaVuSans-44" transform="translate(249.578125 0)"/>
       <use xlink:href="#DejaVuSans-4c" transform="translate(310.859375 0)"/>
       <use xlink:href="#DejaVuSans-12" transform="translate(338.640625 0)"/>
       <use xlink:href="#DejaVuSans-4a" transform="translate(372.328125 0)"/>
       <use xlink:href="#DejaVuSans-53" transform="translate(435.8125 0)"/>
       <use xlink:href="#DejaVuSans-57" transform="translate(499.296875 0)"/>
       <use xlink:href="#DejaVuSans-10" transform="translate(538.5 0)"/>
       <use xlink:href="#DejaVuSans-18" transform="translate(574.578125 0)"/>
       <use xlink:href="#DejaVuSans-11" transform="translate(638.203125 0)"/>
       <use xlink:href="#DejaVuSans-18" transform="translate(669.984375 0)"/>
      </g>
     </g>
    </g>
    <g id="xtick_11">
     <g id="line2d_11">
      <g>
       <use xlink:href="#mbc7e9039f6" x="397.267089" y="282.054359" style="stroke: #000000; stroke-width: 0.8"/>
      </g>
     </g>
     <g id="text_11">
      <!-- qwen/qwen3.7-max -->
      <g transform="translate(362.721542 294.372719) scale(0.07 -0.07)">
       <defs>
        <path id="DejaVuSans-54" d="M 947 1747 
Q 947 1113 1208 752 
Q 1469 391 1925 391 
Q 2381 391 2643 752 
Q 2906 1113 2906 1747 
Q 2906 2381 2643 2742 
Q 2381 3103 1925 3103 
Q 1469 3103 1208 2742 
Q 947 2381 947 1747 
z
M 2906 525 
Q 2725 213 2448 61 
Q 2172 -91 1784 -91 
Q 1150 -91 751 415 
Q 353 922 353 1747 
Q 353 2572 751 3078 
Q 1150 3584 1784 3584 
Q 2172 3584 2448 3432 
Q 2725 3281 2906 2969 
L 2906 3500 
L 3481 3500 
L 3481 -1331 
L 2906 -1331 
L 2906 525 
z
" transform="scale(0.015625)"/>
        <path id="DejaVuSans-1a" d="M 525 4666 
L 3525 4666 
L 3525 4397 
L 1831 0 
L 1172 0 
L 2766 4134 
L 525 4134 
L 525 4666 
z
" transform="scale(0.015625)"/>
        <path id="DejaVuSans-5b" d="M 3513 3500 
L 2247 1797 
L 3578 0 
L 2900 0 
L 1881 1375 
L 863 0 
L 184 0 
L 1544 1831 
L 300 3500 
L 978 3500 
L 1906 2253 
L 2834 3500 
L 3513 3500 
z
" transform="scale(0.015625)"/>
       </defs>
       <use xlink:href="#DejaVuSans-54"/>
       <use xlink:href="#DejaVuSans-5a" transform="translate(63.484375 0)"/>
       <use xlink:href="#DejaVuSans-48" transform="translate(145.265625 0)"/>
       <use xlink:href="#DejaVuSans-51" transform="translate(206.796875 0)"/>
       <use xlink:href="#DejaVuSans-12" transform="translate(270.171875 0)"/>
       <use xlink:href="#DejaVuSans-54" transform="translate(303.859375 0)"/>
       <use xlink:href="#DejaVuSans-5a" transform="translate(367.34375 0)"/>
       <use xlink:href="#DejaVuSans-48" transform="translate(449.125 0)"/>
       <use xlink:href="#DejaVuSans-51" transform="translate(510.65625 0)"/>
       <use xlink:href="#DejaVuSans-16" transform="translate(574.03125 0)"/>
       <use xlink:href="#DejaVuSans-11" transform="translate(637.65625 0)"/>
       <use xlink:href="#DejaVuSans-1a" transform="translate(669.4375 0)"/>
       <use xlink:href="#DejaVuSans-10" transform="translate(733.0625 0)"/>
       <use xlink:href="#DejaVuSans-50" transform="translate(769.140625 0)"/>
       <use xlink:href="#DejaVuSans-44" transform="translate(866.546875 0)"/>
       <use xlink:href="#DejaVuSans-5b" transform="translate(927.828125 0)"/>
      </g>
     </g>
    </g>
    <g id="xtick_12">
     <g id="line2d_12">
      <g>
       <use xlink:href="#mbc7e9039f6" x="428.938568" y="282.054359" style="stroke: #000000; stroke-width: 0.8"/>
      </g>
     </g>
     <g id="text_12">
      <!-- x-ai/grok-4.3 -->
      <g transform="translate(406.72724 294.373266) scale(0.07 -0.07)">
       <use xlink:href="#DejaVuSans-5b"/>
       <use xlink:href="#DejaVuSans-10" transform="translate(59.1875 0)"/>
       <use xlink:href="#DejaVuSans-44" transform="translate(95.265625 0)"/>
       <use xlink:href="#DejaVuSans-4c" transform="translate(156.546875 0)"/>
       <use xlink:href="#DejaVuSans-12" transform="translate(184.328125 0)"/>
       <use xlink:href="#DejaVuSans-4a" transform="translate(218.015625 0)"/>
       <use xlink:href="#DejaVuSans-55" transform="translate(281.5 0)"/>
       <use xlink:href="#DejaVuSans-52" transform="translate(320.40625 0)"/>
       <use xlink:href="#DejaVuSans-4e" transform="translate(381.59375 0)"/>
       <use xlink:href="#DejaVuSans-10" transform="translate(439.5 0)"/>
       <use xlink:href="#DejaVuSans-17" transform="translate(475.578125 0)"/>
       <use xlink:href="#DejaVuSans-11" transform="translate(539.203125 0)"/>
       <use xlink:href="#DejaVuSans-16" transform="translate(570.984375 0)"/>
      </g>
     </g>
    </g>
    <g id="xtick_13">
     <g id="line2d_13">
      <g>
       <use xlink:href="#mbc7e9039f6" x="460.610048" y="282.054359" style="stroke: #000000; stroke-width: 0.8"/>
      </g>
     </g>
     <g id="text_13">
      <!-- z-ai/glm-5.2 -->
      <g transform="translate(439.781767 294.373266) scale(0.07 -0.07)">
       <defs>
        <path id="DejaVuSans-5d" d="M 353 3500 
L 3084 3500 
L 3084 2975 
L 922 459 
L 3084 459 
L 3084 0 
L 275 0 
L 275 525 
L 2438 3041 
L 353 3041 
L 353 3500 
z
" transform="scale(0.015625)"/>
       </defs>
       <use xlink:href="#DejaVuSans-5d"/>
       <use xlink:href="#DejaVuSans-10" transform="translate(52.484375 0)"/>
       <use xlink:href="#DejaVuSans-44" transform="translate(88.5625 0)"/>
       <use xlink:href="#DejaVuSans-4c" transform="translate(149.84375 0)"/>
       <use xlink:href="#DejaVuSans-12" transform="translate(177.625 0)"/>
       <use xlink:href="#DejaVuSans-4a" transform="translate(211.3125 0)"/>
       <use xlink:href="#DejaVuSans-4f" transform="translate(274.796875 0)"/>
       <use xlink:href="#DejaVuSans-50" transform="translate(302.578125 0)"/>
       <use xlink:href="#DejaVuSans-10" transform="translate(399.984375 0)"/>
       <use xlink:href="#DejaVuSans-18" transform="translate(436.0625 0)"/>
       <use xlink:href="#DejaVuSans-11" transform="translate(499.6875 0)"/>
       <use xlink:href="#DejaVuSans-15" transform="translate(531.46875 0)"/>
      </g>
     </g>
    </g>
   </g>
   <g id="matplotlib.axis_2">
    <g id="ytick_1">
     <g id="line2d_14">
      <path d="M 47.962344 274.946183 
L 493.2 274.946183 
" clip-path="url(#pcff96ad436)" style="fill: none; stroke: #b0b0b0; stroke-opacity: 0.4; stroke-width: 0.4; stroke-linecap: square"/>
     </g>
     <g id="line2d_15">
      <defs>
       <path id="mb63be799f7" d="M 0 0 
L -3.5 0 
" style="stroke: #000000; stroke-width: 0.8"/>
      </defs>
      <g>
       <use xlink:href="#mb63be799f7" x="47.962344" y="274.946183" style="stroke: #000000; stroke-width: 0.8"/>
      </g>
     </g>
     <g id="text_14">
      <!-- 0.0 -->
      <g transform="translate(25.059219 278.745011) scale(0.1 -0.1)">
       <use xlink:href="#DejaVuSans-13"/>
       <use xlink:href="#DejaVuSans-11" transform="translate(63.625 0)"/>
       <use xlink:href="#DejaVuSans-13" transform="translate(95.40625 0)"/>
      </g>
     </g>
    </g>
    <g id="ytick_2">
     <g id="line2d_16">
      <path d="M 47.962344 227.558338 
L 493.2 227.558338 
" clip-path="url(#pcff96ad436)" style="fill: none; stroke: #b0b0b0; stroke-opacity: 0.4; stroke-width: 0.4; stroke-linecap: square"/>
     </g>
     <g id="line2d_17">
      <g>
       <use xlink:href="#mb63be799f7" x="47.962344" y="227.558338" style="stroke: #000000; stroke-width: 0.8"/>
      </g>
     </g>
     <g id="text_15">
      <!-- 0.2 -->
      <g transform="translate(25.059219 231.357167) scale(0.1 -0.1)">
       <use xlink:href="#DejaVuSans-13"/>
       <use xlink:href="#DejaVuSans-11" transform="translate(63.625 0)"/>
       <use xlink:href="#DejaVuSans-15" transform="translate(95.40625 0)"/>
      </g>
     </g>
    </g>
    <g id="ytick_3">
     <g id="line2d_18">
      <path d="M 47.962344 180.170494 
L 493.2 180.170494 
" clip-path="url(#pcff96ad436)" style="fill: none; stroke: #b0b0b0; stroke-opacity: 0.4; stroke-width: 0.4; stroke-linecap: square"/>
     </g>
     <g id="line2d_19">
      <g>
       <use xlink:href="#mb63be799f7" x="47.962344" y="180.170494" style="stroke: #000000; stroke-width: 0.8"/>
      </g>
     </g>
     <g id="text_16">
      <!-- 0.4 -->
      <g transform="translate(25.059219 183.969322) scale(0.1 -0.1)">
       <use xlink:href="#DejaVuSans-13"/>
       <use xlink:href="#DejaVuSans-11" transform="translate(63.625 0)"/>
       <use xlink:href="#DejaVuSans-17" transform="translate(95.40625 0)"/>
      </g>
     </g>
    </g>
    <g id="ytick_4">
     <g id="line2d_20">
      <path d="M 47.962344 132.78265 
L 493.2 132.78265 
" clip-path="url(#pcff96ad436)" style="fill: none; stroke: #b0b0b0; stroke-opacity: 0.4; stroke-width: 0.4; stroke-linecap: square"/>
     </g>
     <g id="line2d_21">
      <g>
       <use xlink:href="#mb63be799f7" x="47.962344" y="132.78265" style="stroke: #000000; stroke-width: 0.8"/>
      </g>
     </g>
     <g id="text_17">
      <!-- 0.6 -->
      <g transform="translate(25.059219 136.581478) scale(0.1 -0.1)">
       <use xlink:href="#DejaVuSans-13"/>
       <use xlink:href="#DejaVuSans-11" transform="translate(63.625 0)"/>
       <use xlink:href="#DejaVuSans-19" transform="translate(95.40625 0)"/>
      </g>
     </g>
    </g>
    <g id="ytick_5">
     <g id="line2d_22">
      <path d="M 47.962344 85.394805 
L 493.2 85.394805 
" clip-path="url(#pcff96ad436)" style="fill: none; stroke: #b0b0b0; stroke-opacity: 0.4; stroke-width: 0.4; stroke-linecap: square"/>
     </g>
     <g id="line2d_23">
      <g>
       <use xlink:href="#mb63be799f7" x="47.962344" y="85.394805" style="stroke: #000000; stroke-width: 0.8"/>
      </g>
     </g>
     <g id="text_18">
      <!-- 0.8 -->
      <g transform="translate(25.059219 89.193634) scale(0.1 -0.1)">
       <use xlink:href="#DejaVuSans-13"/>
       <use xlink:href="#DejaVuSans-11" transform="translate(63.625 0)"/>
       <use xlink:href="#DejaVuSans-1b" transform="translate(95.40625 0)"/>
      </g>
     </g>
    </g>
    <g id="ytick_6">
     <g id="line2d_24">
      <path d="M 47.962344 38.006961 
L 493.2 38.006961 
" clip-path="url(#pcff96ad436)" style="fill: none; stroke: #b0b0b0; stroke-opacity: 0.4; stroke-width: 0.4; stroke-linecap: square"/>
     </g>
     <g id="line2d_25">
      <g>
       <use xlink:href="#mb63be799f7" x="47.962344" y="38.006961" style="stroke: #000000; stroke-width: 0.8"/>
      </g>
     </g>
     <g id="text_19">
      <!-- 1.0 -->
      <g transform="translate(25.059219 41.805789) scale(0.1 -0.1)">
       <use xlink:href="#DejaVuSans-14"/>
       <use xlink:href="#DejaVuSans-11" transform="translate(63.625 0)"/>
       <use xlink:href="#DejaVuSans-13" transform="translate(95.40625 0)"/>
      </g>
     </g>
    </g>
    <g id="text_20">
     <!-- relaxed accuracy -->
     <g transform="translate(18.656875 196.786867) rotate(-90) scale(0.1 -0.1)">
      <defs>
       <path id="DejaVuSans-3" transform="scale(0.015625)"/>
       <path id="DejaVuSans-5c" d="M 2059 -325 
Q 1816 -950 1584 -1140 
Q 1353 -1331 966 -1331 
L 506 -1331 
L 506 -850 
L 844 -850 
Q 1081 -850 1212 -737 
Q 1344 -625 1503 -206 
L 1606 56 
L 191 3500 
L 800 3500 
L 1894 763 
L 2988 3500 
L 3597 3500 
L 2059 -325 
z
" transform="scale(0.015625)"/>
      </defs>
      <use xlink:href="#DejaVuSans-55"/>
      <use xlink:href="#DejaVuSans-48" transform="translate(38.90625 0)"/>
      <use xlink:href="#DejaVuSans-4f" transform="translate(100.4375 0)"/>
      <use xlink:href="#DejaVuSans-44" transform="translate(128.21875 0)"/>
      <use xlink:href="#DejaVuSans-5b" transform="translate(189.5 0)"/>
      <use xlink:href="#DejaVuSans-48" transform="translate(245.609375 0)"/>
      <use xlink:href="#DejaVuSans-47" transform="translate(307.140625 0)"/>
      <use xlink:href="#DejaVuSans-3" transform="translate(370.625 0)"/>
      <use xlink:href="#DejaVuSans-44" transform="translate(402.40625 0)"/>
      <use xlink:href="#DejaVuSans-46" transform="translate(463.6875 0)"/>
      <use xlink:href="#DejaVuSans-46" transform="translate(518.671875 0)"/>
      <use xlink:href="#DejaVuSans-58" transform="translate(573.65625 0)"/>
      <use xlink:href="#DejaVuSans-55" transform="translate(637.03125 0)"/>
      <use xlink:href="#DejaVuSans-44" transform="translate(678.140625 0)"/>
      <use xlink:href="#DejaVuSans-46" transform="translate(739.421875 0)"/>
      <use xlink:href="#DejaVuSans-5c" transform="translate(794.40625 0)"/>
     </g>
    </g>
   </g>
   <g id="LineCollection_1">
    <path d="M 72.317711 94.40991 
L 72.317711 51.317259 
" clip-path="url(#pcff96ad436)" style="fill: none; stroke: #000000; stroke-width: 0.9"/>
    <path d="M 103.989191 100.052325 
L 103.989191 54.476212 
" clip-path="url(#pcff96ad436)" style="fill: none; stroke: #000000; stroke-width: 0.9"/>
    <path d="M 135.66067 241.070055 
L 135.66067 186.300861 
" clip-path="url(#pcff96ad436)" style="fill: none; stroke: #000000; stroke-width: 0.9"/>
    <path d="M 167.332149 54.912006 
L 167.332149 38.006961 
" clip-path="url(#pcff96ad436)" style="fill: none; stroke: #000000; stroke-width: 0.9"/>
    <path d="M 199.003629 110.974891 
L 199.003629 61.156379 
" clip-path="url(#pcff96ad436)" style="fill: none; stroke: #000000; stroke-width: 0.9"/>
    <path d="M 230.675108 69.899195 
L 230.675108 40.622506 
" clip-path="url(#pcff96ad436)" style="fill: none; stroke: #000000; stroke-width: 0.9"/>
    <path d="M 262.346587 121.508015 
L 262.346587 68.22599 
" clip-path="url(#pcff96ad436)" style="fill: none; stroke: #000000; stroke-width: 0.9"/>
    <path d="M 294.018067 165.524244 
L 294.018067 103.422065 
" clip-path="url(#pcff96ad436)" style="fill: none; stroke: #000000; stroke-width: 0.9"/>
    <path d="M 325.689546 100.052325 
L 325.689546 54.476212 
" clip-path="url(#pcff96ad436)" style="fill: none; stroke: #000000; stroke-width: 0.9"/>
    <path d="M 357.361025 69.899195 
L 357.361025 40.622506 
" clip-path="url(#pcff96ad436)" style="fill: none; stroke: #000000; stroke-width: 0.9"/>
    <path d="M 389.032505 165.524244 
L 389.032505 103.422065 
" clip-path="url(#pcff96ad436)" style="fill: none; stroke: #000000; stroke-width: 0.9"/>
    <path d="M 420.703984 255.191563 
L 420.703984 207.384821 
" clip-path="url(#pcff96ad436)" style="fill: none; stroke: #000000; stroke-width: 0.9"/>
    <path d="M 452.375463 174.706609 
L 452.375463 111.842433 
" clip-path="url(#pcff96ad436)" style="fill: none; stroke: #000000; stroke-width: 0.9"/>
   </g>
   <g id="line2d_26">
    <defs>
     <path id="m60e5acf83c" d="M 2.5 0 
L -2.5 -0 
" style="stroke: #000000"/>
    </defs>
    <g clip-path="url(#pcff96ad436)">
     <use xlink:href="#m60e5acf83c" x="72.317711" y="94.40991" style="fill: #1f77b4; stroke: #000000"/>
     <use xlink:href="#m60e5acf83c" x="103.989191" y="100.052325" style="fill: #1f77b4; stroke: #000000"/>
     <use xlink:href="#m60e5acf83c" x="135.66067" y="241.070055" style="fill: #1f77b4; stroke: #000000"/>
     <use xlink:href="#m60e5acf83c" x="167.332149" y="54.912006" style="fill: #1f77b4; stroke: #000000"/>
     <use xlink:href="#m60e5acf83c" x="199.003629" y="110.974891" style="fill: #1f77b4; stroke: #000000"/>
     <use xlink:href="#m60e5acf83c" x="230.675108" y="69.899195" style="fill: #1f77b4; stroke: #000000"/>
     <use xlink:href="#m60e5acf83c" x="262.346587" y="121.508015" style="fill: #1f77b4; stroke: #000000"/>
     <use xlink:href="#m60e5acf83c" x="294.018067" y="165.524244" style="fill: #1f77b4; stroke: #000000"/>
     <use xlink:href="#m60e5acf83c" x="325.689546" y="100.052325" style="fill: #1f77b4; stroke: #000000"/>
     <use xlink:href="#m60e5acf83c" x="357.361025" y="69.899195" style="fill: #1f77b4; stroke: #000000"/>
     <use xlink:href="#m60e5acf83c" x="389.032505" y="165.524244" style="fill: #1f77b4; stroke: #000000"/>
     <use xlink:href="#m60e5acf83c" x="420.703984" y="255.191563" style="fill: #1f77b4; stroke: #000000"/>
     <use xlink:href="#m60e5acf83c" x="452.375463" y="174.706609" style="fill: #1f77b4; stroke: #000000"/>
    </g>
   </g>
   <g id="line2d_27">
    <g clip-path="url(#pcff96ad436)">
     <use xlink:href="#m60e5acf83c" x="72.317711" y="51.317259" style="fill: #1f77b4; stroke: #000000"/>
     <use xlink:href="#m60e5acf83c" x="103.989191" y="54.476212" style="fill: #1f77b4; stroke: #000000"/>
     <use xlink:href="#m60e5acf83c" x="135.66067" y="186.300861" style="fill: #1f77b4; stroke: #000000"/>
     <use xlink:href="#m60e5acf83c" x="167.332149" y="38.006961" style="fill: #1f77b4; stroke: #000000"/>
     <use xlink:href="#m60e5acf83c" x="199.003629" y="61.156379" style="fill: #1f77b4; stroke: #000000"/>
     <use xlink:href="#m60e5acf83c" x="230.675108" y="40.622506" style="fill: #1f77b4; stroke: #000000"/>
     <use xlink:href="#m60e5acf83c" x="262.346587" y="68.22599" style="fill: #1f77b4; stroke: #000000"/>
     <use xlink:href="#m60e5acf83c" x="294.018067" y="103.422065" style="fill: #1f77b4; stroke: #000000"/>
     <use xlink:href="#m60e5acf83c" x="325.689546" y="54.476212" style="fill: #1f77b4; stroke: #000000"/>
     <use xlink:href="#m60e5acf83c" x="357.361025" y="40.622506" style="fill: #1f77b4; stroke: #000000"/>
     <use xlink:href="#m60e5acf83c" x="389.032505" y="103.422065" style="fill: #1f77b4; stroke: #000000"/>
     <use xlink:href="#m60e5acf83c" x="420.703984" y="207.384821" style="fill: #1f77b4; stroke: #000000"/>
     <use xlink:href="#m60e5acf83c" x="452.375463" y="111.842433" style="fill: #1f77b4; stroke: #000000"/>
    </g>
   </g>
   <g id="LineCollection_2">
    <path d="M 80.552296 267.470865 
L 80.552296 230.310987 
" clip-path="url(#pcff96ad436)" style="fill: none; stroke: #000000; stroke-width: 0.9"/>
    <path d="M 112.223775 274.946183 
L 112.223775 258.041138 
" clip-path="url(#pcff96ad436)" style="fill: none; stroke: #000000; stroke-width: 0.9"/>
    <path d="M 143.895255 241.070055 
L 143.895255 186.300861 
" clip-path="url(#pcff96ad436)" style="fill: none; stroke: #000000; stroke-width: 0.9"/>
    <path d="M 175.566734 62.874784 
L 175.566734 38.84555 
" clip-path="url(#pcff96ad436)" style="fill: none; stroke: #000000; stroke-width: 0.9"/>
    <path d="M 207.238213 201.110711 
L 207.238213 138.246534 
" clip-path="url(#pcff96ad436)" style="fill: none; stroke: #000000; stroke-width: 0.9"/>
    <path d="M 238.909693 251.796764 
L 238.909693 201.978253 
" clip-path="url(#pcff96ad436)" style="fill: none; stroke: #000000; stroke-width: 0.9"/>
    <path d="M 270.581172 237.340309 
L 270.581172 181.229239 
" clip-path="url(#pcff96ad436)" style="fill: none; stroke: #000000; stroke-width: 0.9"/>
    <path d="M 302.252651 244.727154 
L 302.252651 191.445129 
" clip-path="url(#pcff96ad436)" style="fill: none; stroke: #000000; stroke-width: 0.9"/>
    <path d="M 333.924131 229.682372 
L 333.924131 171.284443 
" clip-path="url(#pcff96ad436)" style="fill: none; stroke: #000000; stroke-width: 0.9"/>
    <path d="M 365.59561 131.723904 
L 365.59561 75.612835 
" clip-path="url(#pcff96ad436)" style="fill: none; stroke: #000000; stroke-width: 0.9"/>
    <path d="M 397.267089 251.796764 
L 397.267089 201.978253 
" clip-path="url(#pcff96ad436)" style="fill: none; stroke: #000000; stroke-width: 0.9"/>
    <path d="M 428.938568 251.796764 
L 428.938568 201.978253 
" clip-path="url(#pcff96ad436)" style="fill: none; stroke: #000000; stroke-width: 0.9"/>
    <path d="M 460.610048 248.305329 
L 460.610048 196.668321 
" clip-path="url(#pcff96ad436)" style="fill: none; stroke: #000000; stroke-width: 0.9"/>
   </g>
   <g id="line2d_28">
    <g clip-path="url(#pcff96ad436)">
     <use xlink:href="#m60e5acf83c" x="80.552296" y="267.470865" style="fill: #1f77b4; stroke: #000000"/>
     <use xlink:href="#m60e5acf83c" x="112.223775" y="274.946183" style="fill: #1f77b4; stroke: #000000"/>
     <use xlink:href="#m60e5acf83c" x="143.895255" y="241.070055" style="fill: #1f77b4; stroke: #000000"/>
     <use xlink:href="#m60e5acf83c" x="175.566734" y="62.874784" style="fill: #1f77b4; stroke: #000000"/>
     <use xlink:href="#m60e5acf83c" x="207.238213" y="201.110711" style="fill: #1f77b4; stroke: #000000"/>
     <use xlink:href="#m60e5acf83c" x="238.909693" y="251.796764" style="fill: #1f77b4; stroke: #000000"/>
     <use xlink:href="#m60e5acf83c" x="270.581172" y="237.340309" style="fill: #1f77b4; stroke: #000000"/>
     <use xlink:href="#m60e5acf83c" x="302.252651" y="244.727154" style="fill: #1f77b4; stroke: #000000"/>
     <use xlink:href="#m60e5acf83c" x="333.924131" y="229.682372" style="fill: #1f77b4; stroke: #000000"/>
     <use xlink:href="#m60e5acf83c" x="365.59561" y="131.723904" style="fill: #1f77b4; stroke: #000000"/>
     <use xlink:href="#m60e5acf83c" x="397.267089" y="251.796764" style="fill: #1f77b4; stroke: #000000"/>
     <use xlink:href="#m60e5acf83c" x="428.938568" y="251.796764" style="fill: #1f77b4; stroke: #000000"/>
     <use xlink:href="#m60e5acf83c" x="460.610048" y="248.305329" style="fill: #1f77b4; stroke: #000000"/>
    </g>
   </g>
   <g id="line2d_29">
    <g clip-path="url(#pcff96ad436)">
     <use xlink:href="#m60e5acf83c" x="80.552296" y="230.310987" style="fill: #1f77b4; stroke: #000000"/>
     <use xlink:href="#m60e5acf83c" x="112.223775" y="258.041138" style="fill: #1f77b4; stroke: #000000"/>
     <use xlink:href="#m60e5acf83c" x="143.895255" y="186.300861" style="fill: #1f77b4; stroke: #000000"/>
     <use xlink:href="#m60e5acf83c" x="175.566734" y="38.84555" style="fill: #1f77b4; stroke: #000000"/>
     <use xlink:href="#m60e5acf83c" x="207.238213" y="138.246534" style="fill: #1f77b4; stroke: #000000"/>
     <use xlink:href="#m60e5acf83c" x="238.909693" y="201.978253" style="fill: #1f77b4; stroke: #000000"/>
     <use xlink:href="#m60e5acf83c" x="270.581172" y="181.229239" style="fill: #1f77b4; stroke: #000000"/>
     <use xlink:href="#m60e5acf83c" x="302.252651" y="191.445129" style="fill: #1f77b4; stroke: #000000"/>
     <use xlink:href="#m60e5acf83c" x="333.924131" y="171.284443" style="fill: #1f77b4; stroke: #000000"/>
     <use xlink:href="#m60e5acf83c" x="365.59561" y="75.612835" style="fill: #1f77b4; stroke: #000000"/>
     <use xlink:href="#m60e5acf83c" x="397.267089" y="201.978253" style="fill: #1f77b4; stroke: #000000"/>
     <use xlink:href="#m60e5acf83c" x="428.938568" y="201.978253" style="fill: #1f77b4; stroke: #000000"/>
     <use xlink:href="#m60e5acf83c" x="460.610048" y="196.668321" style="fill: #1f77b4; stroke: #000000"/>
    </g>
   </g>
   <g id="LineCollection_3">
    <path d="M 88.786881 54.912006 
L 88.786881 38.006961 
" clip-path="url(#pcff96ad436)" style="fill: none; stroke: #000000; stroke-width: 0.9"/>
    <path d="M 120.45836 54.912006 
L 120.45836 38.006961 
" clip-path="url(#pcff96ad436)" style="fill: none; stroke: #000000; stroke-width: 0.9"/>
    <path d="M 152.129839 62.874784 
L 152.129839 38.84555 
" clip-path="url(#pcff96ad436)" style="fill: none; stroke: #000000; stroke-width: 0.9"/>
    <path d="M 183.801319 54.912006 
L 183.801319 38.006961 
" clip-path="url(#pcff96ad436)" style="fill: none; stroke: #000000; stroke-width: 0.9"/>
    <path d="M 215.472798 54.912006 
L 215.472798 38.006961 
" clip-path="url(#pcff96ad436)" style="fill: none; stroke: #000000; stroke-width: 0.9"/>
    <path d="M 247.144277 54.912006 
L 247.144277 38.006961 
" clip-path="url(#pcff96ad436)" style="fill: none; stroke: #000000; stroke-width: 0.9"/>
    <path d="M 278.815756 54.912006 
L 278.815756 38.006961 
" clip-path="url(#pcff96ad436)" style="fill: none; stroke: #000000; stroke-width: 0.9"/>
    <path d="M 310.487236 54.912006 
L 310.487236 38.006961 
" clip-path="url(#pcff96ad436)" style="fill: none; stroke: #000000; stroke-width: 0.9"/>
    <path d="M 342.158715 54.912006 
L 342.158715 38.006961 
" clip-path="url(#pcff96ad436)" style="fill: none; stroke: #000000; stroke-width: 0.9"/>
    <path d="M 373.830194 54.912006 
L 373.830194 38.006961 
" clip-path="url(#pcff96ad436)" style="fill: none; stroke: #000000; stroke-width: 0.9"/>
    <path d="M 405.501674 54.912006 
L 405.501674 38.006961 
" clip-path="url(#pcff96ad436)" style="fill: none; stroke: #000000; stroke-width: 0.9"/>
    <path d="M 437.173153 54.912006 
L 437.173153 38.006961 
" clip-path="url(#pcff96ad436)" style="fill: none; stroke: #000000; stroke-width: 0.9"/>
    <path d="M 468.844632 54.912006 
L 468.844632 38.006961 
" clip-path="url(#pcff96ad436)" style="fill: none; stroke: #000000; stroke-width: 0.9"/>
   </g>
   <g id="line2d_30">
    <g clip-path="url(#pcff96ad436)">
     <use xlink:href="#m60e5acf83c" x="88.786881" y="54.912006" style="fill: #1f77b4; stroke: #000000"/>
     <use xlink:href="#m60e5acf83c" x="120.45836" y="54.912006" style="fill: #1f77b4; stroke: #000000"/>
     <use xlink:href="#m60e5acf83c" x="152.129839" y="62.874784" style="fill: #1f77b4; stroke: #000000"/>
     <use xlink:href="#m60e5acf83c" x="183.801319" y="54.912006" style="fill: #1f77b4; stroke: #000000"/>
     <use xlink:href="#m60e5acf83c" x="215.472798" y="54.912006" style="fill: #1f77b4; stroke: #000000"/>
     <use xlink:href="#m60e5acf83c" x="247.144277" y="54.912006" style="fill: #1f77b4; stroke: #000000"/>
     <use xlink:href="#m60e5acf83c" x="278.815756" y="54.912006" style="fill: #1f77b4; stroke: #000000"/>
     <use xlink:href="#m60e5acf83c" x="310.487236" y="54.912006" style="fill: #1f77b4; stroke: #000000"/>
     <use xlink:href="#m60e5acf83c" x="342.158715" y="54.912006" style="fill: #1f77b4; stroke: #000000"/>
     <use xlink:href="#m60e5acf83c" x="373.830194" y="54.912006" style="fill: #1f77b4; stroke: #000000"/>
     <use xlink:href="#m60e5acf83c" x="405.501674" y="54.912006" style="fill: #1f77b4; stroke: #000000"/>
     <use xlink:href="#m60e5acf83c" x="437.173153" y="54.912006" style="fill: #1f77b4; stroke: #000000"/>
     <use xlink:href="#m60e5acf83c" x="468.844632" y="54.912006" style="fill: #1f77b4; stroke: #000000"/>
    </g>
   </g>
   <g id="line2d_31">
    <g clip-path="url(#pcff96ad436)">
     <use xlink:href="#m60e5acf83c" x="88.786881" y="38.006961" style="fill: #1f77b4; stroke: #000000"/>
     <use xlink:href="#m60e5acf83c" x="120.45836" y="38.006961" style="fill: #1f77b4; stroke: #000000"/>
     <use xlink:href="#m60e5acf83c" x="152.129839" y="38.84555" style="fill: #1f77b4; stroke: #000000"/>
     <use xlink:href="#m60e5acf83c" x="183.801319" y="38.006961" style="fill: #1f77b4; stroke: #000000"/>
     <use xlink:href="#m60e5acf83c" x="215.472798" y="38.006961" style="fill: #1f77b4; stroke: #000000"/>
     <use xlink:href="#m60e5acf83c" x="247.144277" y="38.006961" style="fill: #1f77b4; stroke: #000000"/>
     <use xlink:href="#m60e5acf83c" x="278.815756" y="38.006961" style="fill: #1f77b4; stroke: #000000"/>
     <use xlink:href="#m60e5acf83c" x="310.487236" y="38.006961" style="fill: #1f77b4; stroke: #000000"/>
     <use xlink:href="#m60e5acf83c" x="342.158715" y="38.006961" style="fill: #1f77b4; stroke: #000000"/>
     <use xlink:href="#m60e5acf83c" x="373.830194" y="38.006961" style="fill: #1f77b4; stroke: #000000"/>
     <use xlink:href="#m60e5acf83c" x="405.501674" y="38.006961" style="fill: #1f77b4; stroke: #000000"/>
     <use xlink:href="#m60e5acf83c" x="437.173153" y="38.006961" style="fill: #1f77b4; stroke: #000000"/>
     <use xlink:href="#m60e5acf83c" x="468.844632" y="38.006961" style="fill: #1f77b4; stroke: #000000"/>
    </g>
   </g>
   <g id="patch_42">
    <path d="M 47.962344 282.054359 
L 47.962344 26.16 
" style="fill: none; stroke: #000000; stroke-width: 0.8; stroke-linejoin: miter; stroke-linecap: square"/>
   </g>
   <g id="patch_43">
    <path d="M 47.962344 282.054359 
L 493.2 282.054359 
" style="fill: none; stroke: #000000; stroke-width: 0.8; stroke-linejoin: miter; stroke-linecap: square"/>
   </g>
   <g id="text_21">
    <!-- Decomposition: routing legs (binding_only / end_to_end / scaffolded) -->
    <g transform="translate(64.291797 20.16) scale(0.12 -0.12)">
     <defs>
      <path id="DejaVuSans-27" d="M 1259 4147 
L 1259 519 
L 2022 519 
Q 2988 519 3436 956 
Q 3884 1394 3884 2338 
Q 3884 3275 3436 3711 
Q 2988 4147 2022 4147 
L 1259 4147 
z
M 628 4666 
L 1925 4666 
Q 3281 4666 3915 4102 
Q 4550 3538 4550 2338 
Q 4550 1131 3912 565 
Q 3275 0 1925 0 
L 628 0 
L 628 4666 
z
" transform="scale(0.015625)"/>
      <path id="DejaVuSans-1d" d="M 750 794 
L 1409 794 
L 1409 0 
L 750 0 
L 750 794 
z
M 750 3309 
L 1409 3309 
L 1409 2516 
L 750 2516 
L 750 3309 
z
" transform="scale(0.015625)"/>
      <path id="DejaVuSans-b" d="M 1984 4856 
Q 1566 4138 1362 3434 
Q 1159 2731 1159 2009 
Q 1159 1288 1364 580 
Q 1569 -128 1984 -844 
L 1484 -844 
Q 1016 -109 783 600 
Q 550 1309 550 2009 
Q 550 2706 781 3412 
Q 1013 4119 1484 4856 
L 1984 4856 
z
" transform="scale(0.015625)"/>
      <path id="DejaVuSans-42" d="M 3263 -1063 
L 3263 -1509 
L -63 -1509 
L -63 -1063 
L 3263 -1063 
z
" transform="scale(0.015625)"/>
      <path id="DejaVuSans-13ae" d="M 4531 4863 
L 4531 4384 
L 3981 4384 
Q 3672 4384 3551 4259 
Q 3431 4134 3431 3809 
L 3431 3500 
L 4378 3500 
L 4378 3053 
L 3431 3053 
L 3431 0 
L 2853 0 
L 2853 3053 
L 1275 3053 
L 1275 0 
L 697 0 
L 697 3053 
L 147 3053 
L 147 3500 
L 697 3500 
L 697 3744 
Q 697 4328 969 4595 
Q 1241 4863 1831 4863 
L 2375 4863 
L 2375 4384 
L 1825 4384 
Q 1516 4384 1394 4259 
Q 1275 4134 1275 3809 
L 1275 3500 
L 2853 3500 
L 2853 3744 
Q 2853 4328 3125 4595 
Q 3397 4863 3988 4863 
L 4531 4863 
z
" transform="scale(0.015625)"/>
      <path id="DejaVuSans-c" d="M 513 4856 
L 1013 4856 
Q 1481 4119 1714 3412 
Q 1947 2706 1947 2009 
Q 1947 1309 1714 600 
Q 1481 -109 1013 -844 
L 513 -844 
Q 928 -128 1133 580 
Q 1338 1288 1338 2009 
Q 1338 2731 1133 3434 
Q 928 4138 513 4856 
z
" transform="scale(0.015625)"/>
     </defs>
     <use xlink:href="#DejaVuSans-27"/>
     <use xlink:href="#DejaVuSans-48" transform="translate(77 0)"/>
     <use xlink:href="#DejaVuSans-46" transform="translate(138.53125 0)"/>
     <use xlink:href="#DejaVuSans-52" transform="translate(193.515625 0)"/>
     <use xlink:href="#DejaVuSans-50" transform="translate(254.703125 0)"/>
     <use xlink:href="#DejaVuSans-53" transform="translate(352.109375 0)"/>
     <use xlink:href="#DejaVuSans-52" transform="translate(415.59375 0)"/>
     <use xlink:href="#DejaVuSans-56" transform="translate(476.78125 0)"/>
     <use xlink:href="#DejaVuSans-4c" transform="translate(528.875 0)"/>
     <use xlink:href="#DejaVuSans-57" transform="translate(556.65625 0)"/>
     <use xlink:href="#DejaVuSans-4c" transform="translate(595.859375 0)"/>
     <use xlink:href="#DejaVuSans-52" transform="translate(623.640625 0)"/>
     <use xlink:href="#DejaVuSans-51" transform="translate(684.828125 0)"/>
     <use xlink:href="#DejaVuSans-1d" transform="translate(748.203125 0)"/>
     <use xlink:href="#DejaVuSans-3" transform="translate(781.890625 0)"/>
     <use xlink:href="#DejaVuSans-55" transform="translate(813.671875 0)"/>
     <use xlink:href="#DejaVuSans-52" transform="translate(852.578125 0)"/>
     <use xlink:href="#DejaVuSans-58" transform="translate(913.765625 0)"/>
     <use xlink:href="#DejaVuSans-57" transform="translate(977.140625 0)"/>
     <use xlink:href="#DejaVuSans-4c" transform="translate(1016.34375 0)"/>
     <use xlink:href="#DejaVuSans-51" transform="translate(1044.125 0)"/>
     <use xlink:href="#DejaVuSans-4a" transform="translate(1107.5 0)"/>
     <use xlink:href="#DejaVuSans-3" transform="translate(1170.984375 0)"/>
     <use xlink:href="#DejaVuSans-4f" transform="translate(1202.765625 0)"/>
     <use xlink:href="#DejaVuSans-48" transform="translate(1230.546875 0)"/>
     <use xlink:href="#DejaVuSans-4a" transform="translate(1292.078125 0)"/>
     <use xlink:href="#DejaVuSans-56" transform="translate(1355.5625 0)"/>
     <use xlink:href="#DejaVuSans-3" transform="translate(1407.65625 0)"/>
     <use xlink:href="#DejaVuSans-b" transform="translate(1439.4375 0)"/>
     <use xlink:href="#DejaVuSans-45" transform="translate(1478.453125 0)"/>
     <use xlink:href="#DejaVuSans-4c" transform="translate(1541.9375 0)"/>
     <use xlink:href="#DejaVuSans-51" transform="translate(1569.71875 0)"/>
     <use xlink:href="#DejaVuSans-47" transform="translate(1633.09375 0)"/>
     <use xlink:href="#DejaVuSans-4c" transform="translate(1696.578125 0)"/>
     <use xlink:href="#DejaVuSans-51" transform="translate(1724.359375 0)"/>
     <use xlink:href="#DejaVuSans-4a" transform="translate(1787.734375 0)"/>
     <use xlink:href="#DejaVuSans-42" transform="translate(1851.21875 0)"/>
     <use xlink:href="#DejaVuSans-52" transform="translate(1901.21875 0)"/>
     <use xlink:href="#DejaVuSans-51" transform="translate(1962.40625 0)"/>
     <use xlink:href="#DejaVuSans-4f" transform="translate(2025.78125 0)"/>
     <use xlink:href="#DejaVuSans-5c" transform="translate(2053.5625 0)"/>
     <use xlink:href="#DejaVuSans-3" transform="translate(2112.75 0)"/>
     <use xlink:href="#DejaVuSans-12" transform="translate(2144.53125 0)"/>
     <use xlink:href="#DejaVuSans-3" transform="translate(2178.21875 0)"/>
     <use xlink:href="#DejaVuSans-48" transform="translate(2210 0)"/>
     <use xlink:href="#DejaVuSans-51" transform="translate(2271.53125 0)"/>
     <use xlink:href="#DejaVuSans-47" transform="translate(2334.90625 0)"/>
     <use xlink:href="#DejaVuSans-42" transform="translate(2398.390625 0)"/>
     <use xlink:href="#DejaVuSans-57" transform="translate(2448.390625 0)"/>
     <use xlink:href="#DejaVuSans-52" transform="translate(2487.59375 0)"/>
     <use xlink:href="#DejaVuSans-42" transform="translate(2548.78125 0)"/>
     <use xlink:href="#DejaVuSans-48" transform="translate(2598.78125 0)"/>
     <use xlink:href="#DejaVuSans-51" transform="translate(2660.3125 0)"/>
     <use xlink:href="#DejaVuSans-47" transform="translate(2723.6875 0)"/>
     <use xlink:href="#DejaVuSans-3" transform="translate(2787.171875 0)"/>
     <use xlink:href="#DejaVuSans-12" transform="translate(2818.953125 0)"/>
     <use xlink:href="#DejaVuSans-3" transform="translate(2852.640625 0)"/>
     <use xlink:href="#DejaVuSans-56" transform="translate(2884.421875 0)"/>
     <use xlink:href="#DejaVuSans-46" transform="translate(2936.515625 0)"/>
     <use xlink:href="#DejaVuSans-44" transform="translate(2991.5 0)"/>
     <use xlink:href="#DejaVuSans-13ae" transform="translate(3052.78125 0)"/>
     <use xlink:href="#DejaVuSans-52" transform="translate(3121.671875 0)"/>
     <use xlink:href="#DejaVuSans-4f" transform="translate(3182.859375 0)"/>
     <use xlink:href="#DejaVuSans-47" transform="translate(3210.640625 0)"/>
     <use xlink:href="#DejaVuSans-48" transform="translate(3274.125 0)"/>
     <use xlink:href="#DejaVuSans-47" transform="translate(3335.65625 0)"/>
     <use xlink:href="#DejaVuSans-c" transform="translate(3399.140625 0)"/>
    </g>
   </g>
   <g id="legend_1">
    <g id="patch_44">
     <path d="M 422.899219 37.778906 
L 436.899219 37.778906 
L 436.899219 32.878906 
L 422.899219 32.878906 
z
" style="fill: #0072b2"/>
    </g>
    <g id="text_22">
     <!-- binding_only -->
     <g transform="translate(442.499219 37.778906) scale(0.07 -0.07)">
      <use xlink:href="#DejaVuSans-45"/>
      <use xlink:href="#DejaVuSans-4c" transform="translate(63.484375 0)"/>
      <use xlink:href="#DejaVuSans-51" transform="translate(91.265625 0)"/>
      <use xlink:href="#DejaVuSans-47" transform="translate(154.640625 0)"/>
      <use xlink:href="#DejaVuSans-4c" transform="translate(218.125 0)"/>
      <use xlink:href="#DejaVuSans-51" transform="translate(245.90625 0)"/>
      <use xlink:href="#DejaVuSans-4a" transform="translate(309.28125 0)"/>
      <use xlink:href="#DejaVuSans-42" transform="translate(372.765625 0)"/>
      <use xlink:href="#DejaVuSans-52" transform="translate(422.765625 0)"/>
      <use xlink:href="#DejaVuSans-51" transform="translate(483.953125 0)"/>
      <use xlink:href="#DejaVuSans-4f" transform="translate(547.328125 0)"/>
      <use xlink:href="#DejaVuSans-5c" transform="translate(575.109375 0)"/>
     </g>
    </g>
    <g id="patch_45">
     <path d="M 422.899219 48.279453 
L 436.899219 48.279453 
L 436.899219 43.379453 
L 422.899219 43.379453 
z
" style="fill: #e69f00"/>
    </g>
    <g id="text_23">
     <!-- end_to_end -->
     <g transform="translate(442.499219 48.279453) scale(0.07 -0.07)">
      <use xlink:href="#DejaVuSans-48"/>
      <use xlink:href="#DejaVuSans-51" transform="translate(61.53125 0)"/>
      <use xlink:href="#DejaVuSans-47" transform="translate(124.90625 0)"/>
      <use xlink:href="#DejaVuSans-42" transform="translate(188.390625 0)"/>
      <use xlink:href="#DejaVuSans-57" transform="translate(238.390625 0)"/>
      <use xlink:href="#DejaVuSans-52" transform="translate(277.59375 0)"/>
      <use xlink:href="#DejaVuSans-42" transform="translate(338.78125 0)"/>
      <use xlink:href="#DejaVuSans-48" transform="translate(388.78125 0)"/>
      <use xlink:href="#DejaVuSans-51" transform="translate(450.3125 0)"/>
      <use xlink:href="#DejaVuSans-47" transform="translate(513.6875 0)"/>
     </g>
    </g>
    <g id="patch_46">
     <path d="M 422.899219 58.78 
L 436.899219 58.78 
L 436.899219 53.88 
L 422.899219 53.88 
z
" style="fill: #009e73"/>
    </g>
    <g id="text_24">
     <!-- scaffolded -->
     <g transform="translate(442.499219 58.78) scale(0.07 -0.07)">
      <use xlink:href="#DejaVuSans-56"/>
      <use xlink:href="#DejaVuSans-46" transform="translate(52.09375 0)"/>
      <use xlink:href="#DejaVuSans-44" transform="translate(107.078125 0)"/>
      <use xlink:href="#DejaVuSans-13ae" transform="translate(168.359375 0)"/>
      <use xlink:href="#DejaVuSans-52" transform="translate(237.25 0)"/>
      <use xlink:href="#DejaVuSans-4f" transform="translate(298.4375 0)"/>
      <use xlink:href="#DejaVuSans-47" transform="translate(326.21875 0)"/>
      <use xlink:href="#DejaVuSans-48" transform="translate(389.703125 0)"/>
      <use xlink:href="#DejaVuSans-47" transform="translate(451.234375 0)"/>
     </g>
    </g>
   </g>
  </g>
  <g id="text_25">
   <!-- n=50 per cell; relaxed match (canonical); error bars: Wilson 95% CI; 2026-07-09 -->
   <g style="fill: #555555" transform="translate(5.04 315.216) scale(0.07 -0.07)">
    <defs>
     <path id="DejaVuSans-20" d="M 678 2906 
L 4684 2906 
L 4684 2381 
L 678 2381 
L 678 2906 
z
M 678 1631 
L 4684 1631 
L 4684 1100 
L 678 1100 
L 678 1631 
z
" transform="scale(0.015625)"/>
     <path id="DejaVuSans-1e" d="M 750 3309 
L 1409 3309 
L 1409 2516 
L 750 2516 
L 750 3309 
z
M 750 794 
L 1409 794 
L 1409 256 
L 897 -744 
L 494 -744 
L 750 256 
L 750 794 
z
" transform="scale(0.015625)"/>
     <path id="DejaVuSans-3a" d="M 213 4666 
L 850 4666 
L 1831 722 
L 2809 4666 
L 3519 4666 
L 4500 722 
L 5478 4666 
L 6119 4666 
L 4947 0 
L 4153 0 
L 3169 4050 
L 2175 0 
L 1381 0 
L 213 4666 
z
" transform="scale(0.015625)"/>
     <path id="DejaVuSans-1c" d="M 703 97 
L 703 672 
Q 941 559 1184 500 
Q 1428 441 1663 441 
Q 2288 441 2617 861 
Q 2947 1281 2994 2138 
Q 2813 1869 2534 1725 
Q 2256 1581 1919 1581 
Q 1219 1581 811 2004 
Q 403 2428 403 3163 
Q 403 3881 828 4315 
Q 1253 4750 1959 4750 
Q 2769 4750 3195 4129 
Q 3622 3509 3622 2328 
Q 3622 1225 3098 567 
Q 2575 -91 1691 -91 
Q 1453 -91 1209 -44 
Q 966 3 703 97 
z
M 1959 2075 
Q 2384 2075 2632 2365 
Q 2881 2656 2881 3163 
Q 2881 3666 2632 3958 
Q 2384 4250 1959 4250 
Q 1534 4250 1286 3958 
Q 1038 3666 1038 3163 
Q 1038 2656 1286 2365 
Q 1534 2075 1959 2075 
z
" transform="scale(0.015625)"/>
     <path id="DejaVuSans-8" d="M 4653 2053 
Q 4381 2053 4226 1822 
Q 4072 1591 4072 1178 
Q 4072 772 4226 539 
Q 4381 306 4653 306 
Q 4919 306 5073 539 
Q 5228 772 5228 1178 
Q 5228 1588 5073 1820 
Q 4919 2053 4653 2053 
z
M 4653 2450 
Q 5147 2450 5437 2106 
Q 5728 1763 5728 1178 
Q 5728 594 5436 251 
Q 5144 -91 4653 -91 
Q 4153 -91 3862 251 
Q 3572 594 3572 1178 
Q 3572 1766 3864 2108 
Q 4156 2450 4653 2450 
z
M 1428 4353 
Q 1159 4353 1004 4120 
Q 850 3888 850 3481 
Q 850 3069 1003 2837 
Q 1156 2606 1428 2606 
Q 1700 2606 1854 2837 
Q 2009 3069 2009 3481 
Q 2009 3884 1853 4118 
Q 1697 4353 1428 4353 
z
M 4250 4750 
L 4750 4750 
L 1831 -91 
L 1331 -91 
L 4250 4750 
z
M 1428 4750 
Q 1922 4750 2215 4408 
Q 2509 4066 2509 3481 
Q 2509 2891 2217 2550 
Q 1925 2209 1428 2209 
Q 931 2209 642 2551 
Q 353 2894 353 3481 
Q 353 4063 643 4406 
Q 934 4750 1428 4750 
z
" transform="scale(0.015625)"/>
     <path id="DejaVuSans-26" d="M 4122 4306 
L 4122 3641 
Q 3803 3938 3442 4084 
Q 3081 4231 2675 4231 
Q 1875 4231 1450 3742 
Q 1025 3253 1025 2328 
Q 1025 1406 1450 917 
Q 1875 428 2675 428 
Q 3081 428 3442 575 
Q 3803 722 4122 1019 
L 4122 359 
Q 3791 134 3420 21 
Q 3050 -91 2638 -91 
Q 1578 -91 968 557 
Q 359 1206 359 2328 
Q 359 3453 968 4101 
Q 1578 4750 2638 4750 
Q 3056 4750 3426 4639 
Q 3797 4528 4122 4306 
z
" transform="scale(0.015625)"/>
     <path id="DejaVuSans-2c" d="M 628 4666 
L 1259 4666 
L 1259 0 
L 628 0 
L 628 4666 
z
" transform="scale(0.015625)"/>
    </defs>
    <use xlink:href="#DejaVuSans-51"/>
    <use xlink:href="#DejaVuSans-20" transform="translate(63.375 0)"/>
    <use xlink:href="#DejaVuSans-18" transform="translate(147.171875 0)"/>
    <use xlink:href="#DejaVuSans-13" transform="translate(210.796875 0)"/>
    <use xlink:href="#DejaVuSans-3" transform="translate(274.421875 0)"/>
    <use xlink:href="#DejaVuSans-53" transform="translate(306.203125 0)"/>
    <use xlink:href="#DejaVuSans-48" transform="translate(369.6875 0)"/>
    <use xlink:href="#DejaVuSans-55" transform="translate(431.21875 0)"/>
    <use xlink:href="#DejaVuSans-3" transform="translate(472.328125 0)"/>
    <use xlink:href="#DejaVuSans-46" transform="translate(504.109375 0)"/>
    <use xlink:href="#DejaVuSans-48" transform="translate(559.09375 0)"/>
    <use xlink:href="#DejaVuSans-4f" transform="translate(620.625 0)"/>
    <use xlink:href="#DejaVuSans-4f" transform="translate(648.40625 0)"/>
    <use xlink:href="#DejaVuSans-1e" transform="translate(676.1875 0)"/>
    <use xlink:href="#DejaVuSans-3" transform="translate(709.875 0)"/>
    <use xlink:href="#DejaVuSans-55" transform="translate(741.65625 0)"/>
    <use xlink:href="#DejaVuSans-48" transform="translate(780.5625 0)"/>
    <use xlink:href="#DejaVuSans-4f" transform="translate(842.09375 0)"/>
    <use xlink:href="#DejaVuSans-44" transform="translate(869.875 0)"/>
    <use xlink:href="#DejaVuSans-5b" transform="translate(931.15625 0)"/>
    <use xlink:href="#DejaVuSans-48" transform="translate(987.265625 0)"/>
    <use xlink:href="#DejaVuSans-47" transform="translate(1048.796875 0)"/>
    <use xlink:href="#DejaVuSans-3" transform="translate(1112.28125 0)"/>
    <use xlink:href="#DejaVuSans-50" transform="translate(1144.0625 0)"/>
    <use xlink:href="#DejaVuSans-44" transform="translate(1241.46875 0)"/>
    <use xlink:href="#DejaVuSans-57" transform="translate(1302.75 0)"/>
    <use xlink:href="#DejaVuSans-46" transform="translate(1341.953125 0)"/>
    <use xlink:href="#DejaVuSans-4b" transform="translate(1396.9375 0)"/>
    <use xlink:href="#DejaVuSans-3" transform="translate(1460.3125 0)"/>
    <use xlink:href="#DejaVuSans-b" transform="translate(1492.09375 0)"/>
    <use xlink:href="#DejaVuSans-46" transform="translate(1531.109375 0)"/>
    <use xlink:href="#DejaVuSans-44" transform="translate(1586.09375 0)"/>
    <use xlink:href="#DejaVuSans-51" transform="translate(1647.375 0)"/>
    <use xlink:href="#DejaVuSans-52" transform="translate(1710.75 0)"/>
    <use xlink:href="#DejaVuSans-51" transform="translate(1771.9375 0)"/>
    <use xlink:href="#DejaVuSans-4c" transform="translate(1835.3125 0)"/>
    <use xlink:href="#DejaVuSans-46" transform="translate(1863.09375 0)"/>
    <use xlink:href="#DejaVuSans-44" transform="translate(1918.078125 0)"/>
    <use xlink:href="#DejaVuSans-4f" transform="translate(1979.359375 0)"/>
    <use xlink:href="#DejaVuSans-c" transform="translate(2007.140625 0)"/>
    <use xlink:href="#DejaVuSans-1e" transform="translate(2046.15625 0)"/>
    <use xlink:href="#DejaVuSans-3" transform="translate(2079.84375 0)"/>
    <use xlink:href="#DejaVuSans-48" transform="translate(2111.625 0)"/>
    <use xlink:href="#DejaVuSans-55" transform="translate(2173.15625 0)"/>
    <use xlink:href="#DejaVuSans-55" transform="translate(2212.515625 0)"/>
    <use xlink:href="#DejaVuSans-52" transform="translate(2251.421875 0)"/>
    <use xlink:href="#DejaVuSans-55" transform="translate(2312.609375 0)"/>
    <use xlink:href="#DejaVuSans-3" transform="translate(2353.71875 0)"/>
    <use xlink:href="#DejaVuSans-45" transform="translate(2385.5 0)"/>
    <use xlink:href="#DejaVuSans-44" transform="translate(2448.984375 0)"/>
    <use xlink:href="#DejaVuSans-55" transform="translate(2510.265625 0)"/>
    <use xlink:href="#DejaVuSans-56" transform="translate(2551.375 0)"/>
    <use xlink:href="#DejaVuSans-1d" transform="translate(2603.46875 0)"/>
    <use xlink:href="#DejaVuSans-3" transform="translate(2637.15625 0)"/>
    <use xlink:href="#DejaVuSans-3a" transform="translate(2668.9375 0)"/>
    <use xlink:href="#DejaVuSans-4c" transform="translate(2765.609375 0)"/>
    <use xlink:href="#DejaVuSans-4f" transform="translate(2793.390625 0)"/>
    <use xlink:href="#DejaVuSans-56" transform="translate(2821.171875 0)"/>
    <use xlink:href="#DejaVuSans-52" transform="translate(2873.265625 0)"/>
    <use xlink:href="#DejaVuSans-51" transform="translate(2934.453125 0)"/>
    <use xlink:href="#DejaVuSans-3" transform="translate(2997.828125 0)"/>
    <use xlink:href="#DejaVuSans-1c" transform="translate(3029.609375 0)"/>
    <use xlink:href="#DejaVuSans-18" transform="translate(3093.234375 0)"/>
    <use xlink:href="#DejaVuSans-8" transform="translate(3156.859375 0)"/>
    <use xlink:href="#DejaVuSans-3" transform="translate(3251.875 0)"/>
    <use xlink:href="#DejaVuSans-26" transform="translate(3283.65625 0)"/>
    <use xlink:href="#DejaVuSans-2c" transform="translate(3353.484375 0)"/>
    <use xlink:href="#DejaVuSans-1e" transform="translate(3382.984375 0)"/>
    <use xlink:href="#DejaVuSans-3" transform="translate(3416.671875 0)"/>
    <use xlink:href="#DejaVuSans-15" transform="translate(3448.453125 0)"/>
    <use xlink:href="#DejaVuSans-13" transform="translate(3512.078125 0)"/>
    <use xlink:href="#DejaVuSans-15" transform="translate(3575.703125 0)"/>
    <use xlink:href="#DejaVuSans-19" transform="translate(3639.328125 0)"/>
    <use xlink:href="#DejaVuSans-10" transform="translate(3702.953125 0)"/>
    <use xlink:href="#DejaVuSans-13" transform="translate(3739.03125 0)"/>
    <use xlink:href="#DejaVuSans-1a" transform="translate(3802.65625 0)"/>
    <use xlink:href="#DejaVuSans-10" transform="translate(3866.28125 0)"/>
    <use xlink:href="#DejaVuSans-13" transform="translate(3902.359375 0)"/>
    <use xlink:href="#DejaVuSans-1c" transform="translate(3965.984375 0)"/>
   </g>
  </g>
 </g>
 <defs>
  <clipPath id="pcff96ad436">
   <rect x="47.962344" y="26.16" width="445.237656" height="255.894359"/>
  </clipPath>
 </defs>
</svg>
